<?xml version="1.0" encoding="utf-8"?>
<!-- Generator: Adobe Illustrator 28.0.0, SVG Export Plug-In . SVG Version: 6.00 Build 0)  -->
<svg version="1.1" id="Objects" xmlns="http://www.w3.org/2000/svg" xmlns:xlink="http://www.w3.org/1999/xlink" x="0px" y="0px"
	 viewBox="0 0 638 244.4" style="enable-background:new 0 0 638 244.4;" xml:space="preserve">
<style type="text/css">
	.st0{fill:#E1CD1F;}
	.st1{fill:#FFB000;}
	.st2{fill:#FFFFFF;}
	.st3{fill:#28556B;}
	.st4{fill:url(#SVGID_1_);}
	.st5{fill:url(#SVGID_00000164479261785505280060000016187280395849656759_);}
	.st6{fill:url(#SVGID_00000085215704906046988400000014673989873573090465_);}
	.st7{fill:#C1272D;}
	.st8{fill:#E52C29;}
	.st9{fill:#FFDC48;}
	.st10{fill:#9CBED3;}
	.st11{opacity:0.1;fill:#9CBED3;enable-background:new    ;}
	.st12{fill:#498EAD;}
	.st13{fill:#1E5A72;}
	.st14{fill:#04A600;}
	.st15{fill:none;}
	.st16{fill:#0FD186;}
	.st17{fill:#0089FF;}
</style>
<g>
	<g>
		<g>
			<g>
				<path class="st0" d="M117.3,68.1c0.4,0.2,0,0.4-0.1,0.4c-1.1,0.2-2.3,0.5-3.4,0.6c-3.8,0.4-7.4,1.3-11.1,2.3
					c-3.1,0.8-6.1,1.7-9.1,2.7s-6,2.1-8.9,3.4c-4.1,1.9-8.1,4-11.7,6.9c-0.3,0.2-0.6,0.3-0.9,0.1c-0.2-0.2-0.2-0.5,0-0.8
					c0.1-0.2,0.3-0.5,0.5-0.7c4.2-4.6,9.3-8,15.2-10.1c3.1-1.1,6.3-2.1,9.5-2.9c3.3-0.8,6.7-1.2,10.1-1.8c0.8-0.1,1.5-0.3,2.3-0.2
					C112.3,68.2,114.8,68.2,117.3,68.1z"/>
				<path class="st0" d="M72.5,85.3c-0.2,0-0.4-0.1-0.6-0.2c-0.4-0.3-0.5-0.9-0.1-1.4l0.1-0.1c0.1-0.2,0.3-0.4,0.4-0.6
					c4.3-4.7,9.5-8.1,15.4-10.2c3.7-1.3,6.7-2.2,9.5-2.9c2.4-0.6,4.9-1,7.4-1.4c0.9-0.1,1.8-0.3,2.7-0.5l0.4-0.1
					c0.7-0.1,1.4-0.3,2.1-0.2h7.6l0.1,0.1c0.4,0.3,0.4,0.6,0.4,0.7c-0.1,0.3-0.4,0.5-0.6,0.6l-0.7,0.2c-0.9,0.2-1.8,0.4-2.8,0.5
					c-3.7,0.4-7.2,1.3-11,2.2c-3.2,0.8-6.2,1.7-9,2.7c-3.2,1.1-6.1,2.1-8.8,3.4c-3.9,1.8-8,3.9-11.6,6.9
					C73.1,85.1,72.8,85.3,72.5,85.3z M109.4,68.6c-0.5,0-0.9,0.1-1.4,0.2l-0.4,0.1c-0.9,0.2-1.8,0.3-2.7,0.5
					c-2.4,0.4-4.9,0.8-7.3,1.4c-2.8,0.7-5.8,1.6-9.4,2.9c-5.8,2.1-10.9,5.4-15,10c-0.1,0.1-0.2,0.3-0.3,0.5l-0.1,0.2
					c0,0,0,0.1-0.1,0.1c0,0,0.1-0.1,0.2-0.1c3.6-3,7.8-5.2,11.8-7c2.8-1.3,5.7-2.3,8.9-3.4c2.9-1,5.9-1.9,9.1-2.7
					c3.9-1,7.4-1.8,11.1-2.3c0.1,0,0.3,0,0.4,0h-4.3C109.7,68.6,109.5,68.6,109.4,68.6z"/>
			</g>
		</g>
		<g>
			<g>
				<path class="st0" d="M72.8,98.5c7,0.3,13.7,2,19.8,5.6c4.8,2.8,9,6.3,13.2,9.7c1.3,1.1,2.4,2.4,3.3,3.9c0.6,1,0.5,2.4,1.4,3.3
					c0,0,0,0.2-0.1,0.3s-0.2,0-0.4,0c-0.4-0.2-0.6-0.6-0.9-1c-2.5-3.1-5.8-5.4-8.9-7.8c-2.7-2.1-5.5-4.1-8.5-5.8
					c-3.8-2.2-7.7-4-11.9-5.4c-2.8-0.9-5.7-1.4-8.6-1.9c-0.3,0-0.5-0.1-0.5-0.4s0.3-0.4,0.6-0.4C71.9,98.5,72.4,98.5,72.8,98.5z"/>
				<path class="st0" d="M110.4,121.8c-0.1,0-0.3,0-0.4-0.1c-0.5-0.2-0.8-0.6-1-0.9c-0.1-0.1-0.1-0.2-0.2-0.2
					c-2-2.5-4.6-4.5-7.1-6.4c-0.6-0.4-1.2-0.9-1.7-1.3c-2.7-2.2-5.6-4.1-8.4-5.7c-4.1-2.3-7.9-4.1-11.8-5.3
					c-2.6-0.8-5.3-1.4-8.5-1.9c-0.9-0.1-1-0.7-1-0.9c0-0.3,0.1-0.5,0.3-0.7c0.2-0.2,0.5-0.3,0.9-0.3h1h0.4l0,0
					c7.6,0.4,14.1,2.2,20.1,5.6c4.3,2.5,8.2,5.6,12,8.7l1.3,1c1.3,1,2.4,2.4,3.4,4c0.3,0.5,0.5,1.1,0.6,1.6c0.2,0.6,0.3,1.2,0.7,1.7
					c0.2,0.3,0.1,0.7,0,0.9C110.8,121.7,110.7,121.8,110.4,121.8z M110.2,121.3L110.2,121.3L110.2,121.3z M72.3,99
					c2.9,0.5,5.4,1,7.9,1.8c4,1.2,7.9,3,12,5.4c2.9,1.7,5.8,3.6,8.5,5.8c0.6,0.5,1.1,0.9,1.7,1.3c2.4,1.9,4.9,3.8,7,6.2
					c0-0.1-0.1-0.2-0.1-0.3c-0.1-0.5-0.3-0.9-0.5-1.3c-0.9-1.6-2-2.8-3.2-3.8l-1.3-1c-3.8-3-7.6-6.1-11.9-8.6
					c-5.8-3.3-12.2-5.1-19.6-5.5L72.3,99C72.4,99,72.3,99,72.3,99z"/>
			</g>
		</g>
		<g>
			<g>
				<path class="st0" d="M18.1,135.4c-0.2-1.2,0.4-2,0.7-2.8c1.3-2.9,3.3-5.4,5-8.1c1.5-2.4,3.1-4.8,5.1-6.9
					c3.2-3.5,6.5-6.9,10.3-9.8c2.6-2,5.3-3.7,8.1-5.4c0.3-0.2,0.8-0.6,0.9-0.2c0.2,0.4,0.1,1-0.3,1.3c-3,2.6-6.1,5.2-9.2,7.8
					c-3.1,2.7-5.9,5.6-8.6,8.6c-2.9,3.2-5.6,6.6-8.2,10C20.7,131.5,19.5,133.3,18.1,135.4z"/>
				<path class="st0" d="M17.8,136.7l-0.2-1.3c-0.2-1.2,0.2-1.9,0.6-2.6c0.1-0.1,0.1-0.3,0.2-0.4c0.9-2.1,2.2-3.9,3.4-5.7
					c0.6-0.8,1.1-1.6,1.6-2.4c1.6-2.5,3.1-4.9,5.1-7c3.5-3.7,6.6-7,10.4-9.8c2.5-1.9,5.1-3.6,8.2-5.5l0.1-0.1
					c0.3-0.2,0.7-0.4,1.1-0.3c0.2,0,0.4,0.2,0.5,0.4c0.3,0.6,0.1,1.4-0.4,1.9c-1.2,1.1-2.5,2.1-3.7,3.2c-1.8,1.5-3.6,3.1-5.4,4.6
					c-2.6,2.3-5.3,4.9-8.6,8.5c-2.6,2.8-5.2,6-8.2,10c-0.9,1.2-1.7,2.4-2.6,3.7c-0.4,0.6-0.8,1.2-1.3,1.9L17.8,136.7z M47.8,102.6
					C47.8,102.6,47.7,102.6,47.8,102.6l-0.2,0.2c-3.1,1.9-5.6,3.5-8.1,5.4c-3.6,2.8-6.8,6-10.2,9.7c-1.9,2.1-3.5,4.4-5,6.9
					c-0.5,0.8-1.1,1.7-1.6,2.5c-1.2,1.7-2.4,3.5-3.3,5.4c0.8-1.1,1.5-2.1,2.2-3.2c3-4,5.6-7.2,8.2-10.1c3.3-3.6,6-6.3,8.6-8.6
					c1.8-1.6,3.6-3.1,5.4-4.7c1.2-1.1,2.5-2.1,3.7-3.2C47.7,102.9,47.8,102.7,47.8,102.6z"/>
			</g>
		</g>
		<g>
			<g>
				<path class="st0" d="M8.4,75.5c3.2,0.2,6.3,1,9.4,2c6.8,2.1,13.6,4.3,20,7.5c2.5,1.2,4.8,2.7,7.1,4.3c0.4,0.3,1,0.6,0.6,1.2
					c-0.3,0.6-0.9,0.4-1.4,0.1c-2.7-1.5-5.5-3-8.3-4.3c-2.3-1.1-4.6-2-6.9-2.9c-3.7-1.4-7.5-2.7-11.2-3.9c-3.3-1.1-6.6-2.2-10.1-2.9
					c-0.4-0.1-0.9,0-1.3-0.1c-0.2,0-0.5,0.1-0.5-0.2c0-0.2,0.2-0.3,0.4-0.4C7,75.5,7.7,75.5,8.4,75.5z"/>
				<path class="st0" d="M44.9,91.3c-0.3,0-0.6-0.1-1.1-0.3c-3.1-1.7-5.8-3.1-8.3-4.3c-2-1-4.3-1.9-6.9-2.9
					c-3.8-1.4-7.6-2.8-11.2-3.9c-3.3-1.1-6.6-2.2-10-2.9c-0.2,0-0.5,0-0.7-0.1c-0.2,0-0.3,0-0.5,0s-0.5,0-0.7-0.2
					c-0.1-0.1-0.2-0.3-0.2-0.5s0.1-0.7,0.8-0.9c0.8-0.2,1.5-0.2,2.3-0.3h0.1l0,0c3.4,0.2,6.5,1.1,9.5,2c6.1,1.9,13.3,4.2,20.1,7.6
					c2.5,1.3,4.9,2.7,7.1,4.4l0.1,0.1c0.4,0.3,1.2,0.8,0.7,1.7C45.8,91,45.5,91.3,44.9,91.3z M7.9,76c3.4,0.7,6.7,1.8,9.9,2.9
					c3.7,1.2,7.5,2.5,11.3,4c2.6,1,4.9,2,7,3c2.6,1.2,5.2,2.6,8.4,4.4c0.6,0.3,0.7,0.2,0.7,0.1c0-0.2-0.3-0.3-0.4-0.4l-0.1-0.1
					c-2.1-1.6-4.5-3-7-4.3c-6.7-3.3-13.8-5.7-19.9-7.5c-2.9-0.9-6-1.8-9.3-1.9H8.4C8.2,76,8,76,7.9,76z"/>
			</g>
		</g>
		<g>
			<g>
				<path class="st0" d="M65.2,37.1c-0.5,1.7-1,3.5-1.5,5.2c-0.8,2.7-1.4,5.4-2,8.1c-1.5,7.5-2.2,15.1-2.8,22.7
					c-0.2,2.4-0.3,4.8-0.5,7.2c-0.1,0.8-0.3,1.7-0.5,2.5c-0.1,0.3-0.2,0.7-0.7,0.6s-0.3-0.4-0.3-0.7c0-5.9,0.5-11.8,1-17.7
					c0.2-3,0.5-6.1,1-9.1c0.4-2.2,0.8-4.4,1.4-6.6c0.6-2.3,1.2-4.6,2-6.9C63,40.6,63.6,38.7,65.2,37.1z"/>
				<path class="st0" d="M57.4,84c-0.1,0-0.2,0-0.3,0c-0.4-0.1-0.8-0.3-0.7-1.1c0-5.2,0.4-10.3,0.8-15.3l0.2-2.6
					c0.2-2.9,0.5-6.1,1-9.1c0.4-2.2,0.8-4.4,1.4-6.6c0.6-2.3,1.2-4.6,2-6.9c0.7-2,1.4-4,3-5.6l1.3-1.3l-1,3.4
					c-0.3,1.2-0.7,2.4-1,3.6c-0.8,2.7-1.4,5.5-2,8.1c-1.5,7.6-2.2,15.4-2.7,22.6c-0.1,1.1-0.2,2.2-0.2,3.3c-0.1,1.3-0.2,2.6-0.3,3.9
					c-0.1,0.9-0.3,1.8-0.5,2.6C58.3,83.8,57.8,84,57.4,84z M63.9,39.8c-0.4,0.9-0.8,1.8-1.1,2.8c-0.8,2.3-1.4,4.7-2,6.9
					c-0.5,2.1-1,4.3-1.4,6.5c-0.5,3-0.8,6.1-1,9l-0.2,2.6c-0.4,5-0.8,10.1-0.8,15.1v0.1v-0.1c0.2-0.8,0.4-1.6,0.5-2.4
					c0.1-1.3,0.2-2.6,0.3-3.9c0.1-1.1,0.1-2.2,0.2-3.3c0.6-7.3,1.2-15.1,2.8-22.8c0.5-2.6,1.2-5.4,2-8.2
					C63.4,41.4,63.7,40.6,63.9,39.8z"/>
			</g>
		</g>
		<g>
			<g>
				<path class="st0" d="M27.7,36c0.6-0.7,1.1-0.2,1.5,0.1c1,0.6,2,1.4,2.8,2.3c1.9,2.2,4.1,4.2,5.7,6.6c2.5,3.8,4.8,7.7,6.8,11.8
					c2.3,4.8,4.6,9.7,6.1,14.8c0.3,1,0.5,2,0.8,3c0,0.2,0.2,0.5-0.2,0.6c-0.2,0-0.4-0.2-0.4-0.4c-1-3.6-2.9-6.9-4.4-10.4
					c-1.2-2.8-2.6-5.4-4-8.1c-2.5-4.8-5.3-9.5-8.6-13.9c-1.6-2-3.2-4-5.1-5.8C28.4,36.4,28,36.2,27.7,36z"/>
				<path class="st0" d="M51.1,75.7c-0.4,0-0.7-0.3-0.9-0.8c-0.7-2.5-1.9-4.9-3-7.2c-0.5-1-1-2-1.4-3.1c-1.3-3-2.8-5.9-4-8.1
					c-3.1-5.8-5.7-10.1-8.6-13.8c-1.8-2.4-3.4-4.2-5-5.8c-0.2-0.1-0.3-0.3-0.6-0.4c-0.1-0.1-0.2-0.1-0.3-0.2L26.9,36l0.3-0.4
					c0.8-1,1.6-0.4,2-0.1c0.1,0,0.1,0.1,0.2,0.1c1,0.6,2,1.4,2.9,2.4c0.5,0.6,1.1,1.2,1.7,1.8c1.4,1.5,2.9,3.1,4,4.9
					c2.9,4.4,5,8.2,6.8,11.9c2.3,4.7,4.6,9.7,6.2,14.9c0.3,0.9,0.5,1.9,0.7,2.8v0.1c0.1,0.2,0.1,0.6-0.1,0.9
					C51.5,75.4,51.4,75.6,51.1,75.7C51.2,75.7,51.2,75.7,51.1,75.7z M29.6,36.8c1.5,1.5,2.9,3.2,4.6,5.3c2.9,3.8,5.6,8.1,8.7,13.9
					c1.2,2.2,2.6,5.1,4,8.1c0.4,1,0.9,2,1.4,3c0.5,1.2,1.1,2.3,1.6,3.5c-1.5-4.8-3.7-9.4-5.8-13.8c-1.8-3.7-3.9-7.4-6.8-11.8
					c-1.1-1.7-2.5-3.2-3.9-4.7c-0.6-0.6-1.1-1.2-1.7-1.8C31,38,30.3,37.3,29.6,36.8z"/>
			</g>
		</g>
		<g>
			<g>
				<path class="st0" d="M108.3,100c-1.6,0.1-2.9-0.5-4.2-0.9c-2.5-0.9-5.1-1.7-7.7-2.5c-2.7-0.9-5.5-1.6-8.3-2.1
					c-1.3-0.3-2.8-0.3-4.1-0.5c-2.7-0.4-5.5-0.4-8.2-0.7c-2.7-0.3-5.5,0-8.2,0.5c-0.7,0.1-1.3,0.1-2,0.3c-0.2,0.1-0.6,0-0.6-0.2
					c-0.1-0.3,0.2-0.5,0.5-0.6c1.4-0.3,2.8-0.7,4.2-0.9c4.1-0.7,8.3-0.4,12.4-0.2c6.8,0.4,13.3,2.1,19.7,4.5
					c1.9,0.7,3.8,1.5,5.5,2.5C107.5,99.4,108,99.5,108.3,100z"/>
				<path class="st0" d="M107.9,100.5c-1.3,0-2.4-0.4-3.5-0.8l-0.4-0.2c-1.7-0.6-3.4-1.1-5-1.7c-0.9-0.3-1.8-0.6-2.6-0.9
					c-2.5-0.8-5.2-1.5-8.3-2.1c-0.7-0.1-1.5-0.2-2.3-0.3c-0.6-0.1-1.2-0.1-1.9-0.2c-1.6-0.2-3.2-0.3-4.7-0.4
					c-1.1-0.1-2.3-0.1-3.5-0.3c-2.9-0.3-5.7,0.1-8.1,0.5c-0.3,0-0.6,0.1-0.8,0.1c-0.4,0-0.8,0.1-1.1,0.2c-0.3,0.1-0.6,0.1-0.9-0.1
					c-0.2-0.1-0.3-0.3-0.4-0.5s0-0.5,0.1-0.7c0.2-0.2,0.4-0.4,0.7-0.5l0.5-0.1c1.2-0.3,2.5-0.6,3.7-0.8c4-0.7,8.1-0.4,12.1-0.2H82
					c6.3,0.3,12.8,1.8,19.8,4.6c2,0.8,3.9,1.5,5.6,2.6c0.1,0,0.2,0.1,0.2,0.1c0.3,0.2,0.7,0.4,1,0.9l0.4,0.7h-0.8
					C108.2,100.5,108,100.5,107.9,100.5z M73.5,92.7c0.8,0,1.5,0,2.3,0.1c1.1,0.1,2.3,0.2,3.4,0.3c1.6,0.1,3.2,0.2,4.8,0.4
					c0.6,0.1,1.2,0.2,1.8,0.2c0.8,0.1,1.6,0.2,2.3,0.3c3.1,0.6,5.8,1.3,8.4,2.1c0.9,0.3,1.8,0.6,2.6,0.9c1.7,0.5,3.4,1.1,5.1,1.7
					l0.4,0.2c0.6,0.2,1.2,0.4,1.8,0.6c-1.5-0.9-3.2-1.6-5-2.3c-6.9-2.7-13.3-4.2-19.5-4.5h-0.5c-3.9-0.2-7.9-0.4-11.9,0.2
					c-0.8,0.1-1.6,0.3-2.5,0.5c0.1,0,0.1,0,0.2,0C69.2,92.9,71.3,92.7,73.5,92.7z"/>
			</g>
		</g>
		<g>
			<g>
				<path class="st0" d="M79.3,145.6c-0.6-0.6-0.7-1.3-1-2c-2.9-6.4-6.1-12.7-9.3-19c-1.8-3.6-3.8-7.1-5.9-10.5
					c-0.1-0.1-0.1-0.3-0.2-0.4c-0.2-0.3-0.4-0.7-0.1-0.9c0.4-0.3,0.8,0,1,0.3c1.4,1.5,2.7,3.2,3.8,5c4.1,6.8,7.7,13.7,10.4,21.2
					c0.7,1.9,1.2,3.9,1.5,5.9C79.5,145.4,79.5,145.5,79.3,145.6z"/>
				<path class="st0" d="M79.3,146.3L79,146c-0.5-0.5-0.7-1.1-0.9-1.6c-0.1-0.2-0.1-0.4-0.2-0.6c-2.7-5.9-5.7-11.8-8.5-17.4
					l-0.8-1.5c-1.8-3.6-3.8-7.1-5.9-10.5c-0.1-0.1-0.1-0.2-0.1-0.3c0,0,0-0.1-0.1-0.1c-0.2-0.3-0.7-1.1,0.1-1.6
					c0.4-0.3,0.9-0.4,1.7,0.4c1.4,1.5,2.7,3.2,3.8,5.1c4.7,7.8,8,14.6,10.4,21.2c0.7,1.9,1.2,4,1.5,6c0.1,0.4,0,0.7-0.4,0.9
					L79.3,146.3z M63.1,113.2c0,0,0.1,0.2,0.2,0.3c0.1,0.1,0.1,0.2,0.2,0.3c0,0,0,0.1,0.1,0.1c2.1,3.4,4.2,6.9,6,10.5l0.8,1.5
					c2.8,5.6,5.7,11.3,8.3,17c-0.3-1.2-0.6-2.4-1-3.5c-2.4-6.6-5.7-13.3-10.3-21.1c-1.1-1.8-2.4-3.5-3.7-4.9
					C63.2,113.2,63.1,113.2,63.1,113.2z"/>
			</g>
		</g>
		<g>
			<g>
				<path class="st0" d="M99.5,127.6c-1.6-1.2-2.6-2.6-3.7-3.9c-0.9-1-1.8-2-2.7-3c-3-3.3-6.1-6.5-9.3-9.6c-1.6-1.6-3.4-2.8-5.2-4.2
					c-0.1-0.1-0.2-0.1-0.3-0.1c-0.2-0.3-0.9-0.6-0.6-1s0.7,0,1.1,0.2c4.7,2.7,8.6,6.3,12.3,10.3c2.8,3.1,5.4,6.2,7.7,9.7
					c0.2,0.3,0.4,0.7,0.6,1C99.4,127.1,99.4,127.2,99.5,127.6z"/>
				<path class="st0" d="M100.4,128.9l-1.1-0.9c-1.3-1-2.2-2.1-3.1-3.2c-0.2-0.3-0.4-0.5-0.7-0.8c-0.7-0.9-1.5-1.7-2.3-2.5l-0.4-0.4
					c-3.1-3.3-6.2-6.6-9.3-9.6c-1.1-1.1-2.3-2-3.5-2.9c-0.5-0.4-1.1-0.8-1.6-1.3c-0.1,0-0.3-0.1-0.4-0.3c0,0-0.1-0.1-0.2-0.2
					c-0.2-0.2-0.8-0.7-0.4-1.4c0.5-0.8,1.3-0.2,1.6,0c0.1,0,0.1,0.1,0.2,0.1c4.2,2.5,8.2,5.8,12.4,10.4c2.6,2.9,5.4,6.1,7.7,9.7
					c0.2,0.3,0.4,0.6,0.6,1c0.1,0.2,0.1,0.3,0.1,0.4c0,0.1,0,0.2,0.1,0.4L100.4,128.9z M79.3,106.9c0.4,0.3,0.8,0.6,1.2,0.9
					c1.2,0.9,2.5,1.9,3.6,3c3.1,3,6.3,6.3,9.3,9.6l0.4,0.4c0.8,0.8,1.6,1.7,2.3,2.6c0.2,0.3,0.5,0.5,0.7,0.8s0.5,0.6,0.7,0.9
					c-2.1-3.1-4.5-5.9-6.8-8.4C86.9,112.4,83.2,109.3,79.3,106.9z M78.7,106.5C78.7,106.5,78.8,106.6,78.7,106.5
					C78.8,106.6,78.7,106.5,78.7,106.5z"/>
			</g>
		</g>
		<g>
			<g>
				<path class="st0" d="M97.2,48.1c-1.6,0.8-3,1.7-4.3,2.7c-3.3,2.6-6.7,5-9.7,8c-0.9,0.9-1.9,1.7-2.7,2.7
					c-0.2,0.3-0.5,0.8-0.9,0.5s-0.2-0.8,0-1.2c0.5-1,1.2-1.8,1.9-2.6c3.4-3.7,7.2-6.8,11.7-9.2c0.9-0.5,1.9-0.8,2.9-1.2
					C96.3,47.9,96.7,47.8,97.2,48.1z"/>
				<path class="st0" d="M79.8,62.6c-0.2,0-0.3,0-0.5-0.2c-0.7-0.5-0.3-1.4-0.1-1.8c0.5-1,1.2-1.9,1.9-2.7c3.5-3.9,7.5-7,11.8-9.3
					c0.8-0.4,1.6-0.7,2.4-1l0.6-0.2c0.4-0.1,0.9-0.2,1.6,0.2l0.7,0.5l-0.8,0.4c-1.7,0.9-3.1,1.7-4.3,2.6l-1.6,1.3
					c-2.7,2.1-5.5,4.3-8,6.7c-0.3,0.2-0.5,0.5-0.8,0.7c-0.7,0.6-1.3,1.2-1.9,2C80.6,62.1,80.3,62.5,79.8,62.6L79.8,62.6z M94.4,49.1
					c-0.4,0.1-0.7,0.3-1.1,0.5c-4.3,2.2-8.2,5.3-11.6,9.1c-0.7,0.7-1.3,1.5-1.8,2.4c-0.1,0.2-0.2,0.4-0.2,0.4
					c0.1-0.1,0.1-0.2,0.2-0.2c0.6-0.9,1.4-1.5,2-2.2c0.3-0.2,0.5-0.5,0.7-0.7c2.5-2.5,5.4-4.7,8.1-6.8l1.6-1.2
					C93.1,50,93.7,49.5,94.4,49.1z"/>
			</g>
		</g>
	</g>
	<g>
		<g>
			<g>
				<path class="st1" d="M13.9,59.7c0.7-0.2,1.2,0,1.8,0.2c3,1,5.8,2.5,8.5,4.2c4.1,2.4,8.1,4.9,11.9,7.8c4.6,3.6,9.1,7.2,12.4,12
					c0.2,0.3,0.4,0.5,0.5,0.8c0.2,0.4,0.6,0.8,0.1,1.2c-0.5,0.3-1,0.2-1.4-0.2c-0.7-0.7-1.3-1.4-1.9-2.1c-1.9-2.2-4-4.1-6.3-5.8
					C32.4,72.4,25,67.3,17.7,62.2c-1.1-0.8-2.2-1.6-3.5-2.2C14,60,14,59.9,13.9,59.7z"/>
				<path class="st1" d="M48.5,86.6c-0.4,0-0.8-0.2-1.1-0.5c-0.6-0.6-1.2-1.3-1.8-1.9L45.4,84c-1.8-2-3.9-4-6.3-5.7
					c-6.7-5-13.8-10.1-21.8-15.5c-0.3-0.2-0.6-0.4-0.9-0.6c-0.8-0.6-1.6-1.2-2.5-1.6c-0.2-0.1-0.3-0.3-0.4-0.4c0,0,0-0.1-0.1-0.1
					L13,59.6l0.6-0.2c0.8-0.3,1.4,0,1.9,0.1l0.2,0.1c2.7,0.8,5.4,2.1,8.7,4.1c4,2.4,8.1,4.9,11.9,7.9c4.4,3.4,9.1,7.2,12.6,12.1
					l0.2,0.2c0.2,0.2,0.3,0.4,0.4,0.6c0,0.1,0.1,0.1,0.1,0.2c0.2,0.3,0.7,1.1-0.2,1.7C49.1,86.5,48.8,86.6,48.5,86.6z M16,60.6
					c0.4,0.2,0.7,0.5,1,0.7s0.6,0.4,0.9,0.6c8,5.5,15.2,10.5,21.9,15.6c2.4,1.8,4.5,3.8,6.4,5.9l0.2,0.2c0.6,0.6,1.1,1.3,1.7,1.8
					c0.4,0.4,0.6,0.2,0.7,0.1c0.1,0,0.1-0.1,0.1-0.1s-0.1-0.2-0.2-0.2c-0.1-0.1-0.1-0.2-0.1-0.2c-0.1-0.2-0.2-0.3-0.3-0.5
					c-0.1-0.1-0.1-0.2-0.2-0.3c-3.4-4.8-8-8.5-12.3-11.9c-3.8-2.9-7.9-5.5-11.8-7.8C20.8,62.7,18.4,61.5,16,60.6z"/>
			</g>
		</g>
		<g>
			<g>
				<path class="st1" d="M99.8,60.2c0.3,0,0.6-0.1,0.7,0.2c0,0.3-0.3,0.4-0.5,0.5c-2.6,1.1-5.2,2.2-7.7,3.4
					c-4.9,2.3-9.3,5.3-13.5,8.6c-3.7,2.9-7.2,5.9-10.4,9.4c-1.3,1.4-2.5,2.8-3.7,4.2c-0.2,0.2-0.4,0.5-0.6,0.6
					c-0.4,0.3-0.8,0.5-1.2,0.1c-0.4-0.4,0.1-0.7,0.2-0.9c2.6-3.6,5.4-7.1,8.8-10.2c2.3-2.1,4.7-4.1,7.2-6.1c2.6-2,5.3-3.9,8.2-5.4
					c3.3-1.7,6.8-3.3,10.5-4.1C98.5,60.4,99.2,60.6,99.8,60.2z"/>
				<path class="st1" d="M63.4,87.9c-0.3,0-0.6-0.1-0.8-0.4c-0.4-0.4-0.4-0.9,0.1-1.5l0.1-0.1c2.3-3.2,5.2-7,8.9-10.3
					c2.5-2.2,4.8-4.2,7.2-6.1c3-2.4,5.6-4.1,8.2-5.5c3-1.6,6.6-3.3,10.6-4.1c0.3-0.1,0.6-0.1,0.9-0.1c0.4,0,0.7,0,0.9-0.1l0.1-0.1
					h0.1h0.2c0.2,0,0.9,0,1,0.6s-0.5,0.9-0.7,0.9h-0.1l-2,0.9c-1.9,0.8-3.8,1.6-5.7,2.5c-4.3,2-8.6,4.8-13.4,8.6
					c-4.4,3.5-7.6,6.4-10.3,9.3c-0.8,0.9-1.7,1.8-2.5,2.8c-0.4,0.5-0.8,0.9-1.2,1.4l-0.1,0.1c-0.2,0.2-0.3,0.4-0.5,0.5
					C64.1,87.7,63.7,87.9,63.4,87.9z M63.4,86.8c0.1,0.1,0.2,0.1,0.5-0.1c0.1-0.1,0.2-0.2,0.4-0.4l0.1-0.2c0.4-0.5,0.8-0.9,1.2-1.4
					c0.8-0.9,1.6-1.9,2.5-2.8c2.8-3,6-5.9,10.4-9.4c4.9-3.9,9.2-6.6,13.6-8.7c1.9-0.9,3.8-1.7,5.7-2.5l0.8-0.4c-0.2,0-0.5,0-0.7,0.1
					c-3.9,0.8-7.4,2.5-10.3,4c-2.5,1.3-5.1,3-8.1,5.4c-2.4,1.9-4.7,3.8-7.1,6c-3.6,3.2-6.4,6.9-8.7,10.1c0,0.1-0.1,0.1-0.1,0.2
					C63.4,86.7,63.4,86.8,63.4,86.8z"/>
			</g>
		</g>
		<g>
			<g>
				<path class="st1" d="M4.4,100.5c0.5-1.6,1.8-2.4,3-3c4.2-2.1,8.6-3.8,13.3-4.6c3.4-0.6,6.9-0.8,10.3-0.8
					c4.1,0.1,8.1,0.3,12.2,0.8c1.5,0.2,3,0.3,4.4,0.5c0.3,0,0.6,0.2,0.9,0.2c0.5,0.1,0.5,0.5,0.5,0.8c0,0.4-0.3,0.6-0.7,0.6
					c-1.1,0.1-2.1-0.2-3.2-0.2c-1.4,0-2.9-0.3-4.3-0.4c-1.3-0.2-2.6-0.3-3.9-0.3c-4.9-0.2-9.8-0.2-14.6,0.6
					c-4.8,0.8-9.4,2.3-13.9,4.1c-1.1,0.4-2.2,1-3.2,1.6C5.1,100.5,4.8,100.5,4.4,100.5z"/>
				<path class="st1" d="M3.7,101l0.2-0.7c0.5-1.8,1.9-2.6,3.3-3.3c4.7-2.3,9.1-3.9,13.5-4.6c3.4-0.6,6.9-0.9,10.4-0.8
					c4.7,0.1,8.6,0.3,12.2,0.8c0.7,0.1,1.3,0.1,2,0.2c0.8,0.1,1.7,0.2,2.5,0.3c0.2,0,0.4,0.1,0.5,0.1s0.3,0.1,0.4,0.1
					c0.4,0.1,0.9,0.3,1,1.3c0,0.6-0.4,1.1-1.1,1.2c-0.7,0.1-1.4,0-2.1-0.1c-0.4-0.1-0.8-0.1-1.2-0.1c-1.1,0-2.3-0.2-3.4-0.3L41,95
					c-1.2-0.1-2.5-0.3-3.8-0.3c-4.4-0.1-9.6-0.2-14.5,0.6c-4.3,0.8-8.7,2-13.8,4c-1,0.4-2,0.9-2.9,1.4l-0.2,0.1
					c-0.4,0.2-0.7,0.2-1,0.2L3.7,101z M30.2,92.6c-3.2,0-6.3,0.3-9.3,0.8c-4.3,0.8-8.6,2.2-13.2,4.5c-1,0.5-1.9,1-2.4,1.9l0.1-0.1
					c1-0.5,2-1,3-1.5c5.2-2,9.6-3.3,14-4.1c5.1-0.9,10.3-0.8,14.7-0.7c1.3,0,2.7,0.2,3.9,0.3l0.9,0.1c1.1,0.1,2.2,0.3,3.3,0.3
					c0.4,0,0.9,0.1,1.3,0.1c0.6,0.1,1.2,0.2,1.8,0.1c0.2,0,0.3-0.1,0.3-0.1c0-0.3-0.1-0.3-0.1-0.4c-0.2,0-0.3-0.1-0.5-0.1
					c-0.1,0-0.3-0.1-0.4-0.1c-0.8-0.1-1.6-0.2-2.5-0.3c-0.7-0.1-1.3-0.1-2-0.2c-3.6-0.4-7.4-0.7-12.1-0.8
					C30.8,92.6,30.5,92.6,30.2,92.6z"/>
			</g>
		</g>
		<g>
			<g>
				<path class="st1" d="M53,149.3c-0.4-0.5-0.3-0.9-0.3-1.3c0-2.5-0.2-5,0.1-7.5c0.2-2.3,0.3-4.6,0.6-6.9c0.2-1.8,0.4-3.7,0.5-5.6
					c0.1-1.2,0-2.5,0.4-3.8c0.3-0.9,0.1-1.8,0.1-2.7c0-1.5,0.3-3,0.3-4.6s0.2-3.2,0.3-4.8c0.1-1.2,0.2-2.5,0.3-3.7
					c0.2-1.8,0.4-3.7,0.7-5.5c0-0.3,0.3-0.8,0.8-0.7c0.5,0.1,0.5,0.5,0.4,0.9c-0.2,2.3-0.4,4.6-0.6,6.9c0,0.2,0,0.4,0,0.6
					c-0.1,3.8-0.2,7.6-0.5,11.4c-0.3,3.5-0.5,6.9-1,10.4c-0.3,2.4-0.4,4.9-0.7,7.3c-0.3,2.4-0.7,4.8-1,7.1
					C53.3,147.7,53.2,148.4,53,149.3z"/>
				<path class="st1" d="M53.1,150.4l-0.6-0.8c-0.4-0.6-0.4-1.1-0.4-1.4c0-0.1,0-0.1,0-0.2c0-0.7,0-1.4,0-2.1c0-1.8-0.1-3.7,0.1-5.5
					c0.1-1,0.2-1.9,0.2-2.9c0.1-1.3,0.2-2.7,0.4-4.1c0.2-1.7,0.4-3.6,0.5-5.5c0-0.3,0-0.5,0-0.8c0-1,0.1-2.1,0.4-3.1
					c0.2-0.5,0.1-1.1,0.1-1.7c0-0.3,0-0.6,0-0.8c0-0.7,0.1-1.5,0.2-2.2c0.1-0.8,0.2-1.6,0.2-2.4c0-1.7,0.2-3.4,0.3-4.9
					c0.1-0.6,0.1-1.2,0.1-1.8c0-0.6,0.1-1.3,0.2-1.9c0.2-1.7,0.4-3.6,0.7-5.5c0.1-0.4,0.3-0.7,0.5-0.9c0.2-0.2,0.5-0.2,0.9-0.2
					c0.9,0.2,0.9,1.1,0.8,1.4l-0.6,6.9c0,0.2,0,0.4,0,0.6c0,1.2-0.1,2.4-0.1,3.5c-0.1,2.6-0.2,5.3-0.4,7.9c-0.3,3.4-0.5,6.9-1,10.4
					c-0.2,1.3-0.3,2.7-0.4,4c-0.1,1.1-0.2,2.2-0.3,3.3c-0.2,1.4-0.4,2.7-0.6,4.1c-0.2,1-0.3,2-0.4,3.1v0.4c-0.1,0.7-0.2,1.3-0.4,2.1
					L53.1,150.4z M56.7,102.8L56.7,102.8c-0.2,0-0.2,0.1-0.2,0.2c-0.3,1.9-0.5,3.8-0.7,5.5c-0.1,0.6-0.1,1.3-0.1,1.9
					s-0.1,1.2-0.1,1.8c-0.2,1.5-0.3,3.2-0.3,4.8c0,0.8-0.1,1.7-0.2,2.5c-0.1,0.7-0.1,1.4-0.2,2.1c0,0.2,0,0.5,0,0.8
					c0,0.7,0,1.3-0.2,2c-0.3,0.9-0.3,1.9-0.3,2.8c0,0.3,0,0.5,0,0.8c-0.1,2-0.3,3.9-0.5,5.6c-0.2,1.3-0.3,2.7-0.4,4
					c-0.1,1-0.1,1.9-0.2,2.9c-0.1,1.5-0.1,3.1-0.1,4.6c0.1-0.5,0.1-0.9,0.2-1.4c0.2-1.3,0.4-2.7,0.6-4c0.1-1.1,0.2-2.2,0.3-3.3
					c0.1-1.3,0.2-2.7,0.4-4c0.5-3.5,0.8-7,1-10.4c0.2-2.6,0.3-5.3,0.4-7.9c0-1.2,0.1-2.3,0.1-3.5c0-0.3,0-0.5,0-0.7l0.6-6.9
					C56.7,103,56.7,102.8,56.7,102.8z"/>
			</g>
		</g>
		<g>
			<g>
				<path class="st1" d="M21.4,45.2c1.6,0.3,2.9,1.1,4.2,2c5.4,3.4,9.8,7.9,13.6,13c1.4,1.9,2.3,4.1,2.7,6.5
					c0.1,0.4,0.3,0.9-0.3,1.1s-0.7-0.3-0.9-0.7c-1.6-2.8-3.6-5.3-5.8-7.7c-2.5-2.8-5.1-5.4-7.7-8.2C25.4,49,23.3,47.2,21.4,45.2z"/>
				<path class="st1" d="M41.3,68.2c-0.6,0-0.9-0.5-1-0.8c0-0.1-0.1-0.1-0.1-0.2c-1.7-2.9-3.8-5.5-5.7-7.6c-1.4-1.6-2.9-3.2-4.4-4.7
					c-1.1-1.2-2.2-2.3-3.3-3.5s-2.3-2.4-3.5-3.5c-0.8-0.8-1.6-1.6-2.4-2.4l-1.1-1.2l1.6,0.3c1.7,0.3,3,1.2,4.4,2
					c5,3.1,9.5,7.4,13.7,13.1c1.5,1.9,2.4,4.2,2.8,6.7v0.1c0.1,0.3,0.3,1.2-0.7,1.5C41.6,68.2,41.4,68.2,41.3,68.2z M23.3,46.4
					c0.3,0.3,0.5,0.5,0.8,0.8c1.2,1.1,2.4,2.3,3.5,3.6c1.1,1.2,2.2,2.3,3.3,3.5c1.5,1.5,3,3.1,4.4,4.7c1.9,2.2,4.1,4.8,5.8,7.8
					c0,0.1,0.1,0.2,0.1,0.3c0,0.1,0.1,0.2,0.2,0.3l0.1-0.1c0,0,0-0.2-0.1-0.3v-0.2c-0.4-2.3-1.3-4.4-2.6-6.3
					c-4.2-5.6-8.6-9.8-13.5-12.8C24.7,47.2,24,46.8,23.3,46.4z"/>
			</g>
		</g>
		<g>
			<g>
				<path class="st1" d="M91.2,133.7c-0.9-0.3-1.2-1.1-1.6-1.6c-2.8-3.9-5.6-7.8-8.6-11.6c-2.5-3.2-5.4-6-8.2-8.9
					c-2.3-2.4-4.8-4.7-7.1-7.1c-1.1-1.1-2.2-2.3-3.2-3.4c-0.2-0.3-0.7-0.5-0.4-0.9c0.3-0.4,0.6,0.1,0.9,0.2c2.4,1.3,4.1,3.4,6,5.2
					c3.6,3.5,7.3,6.8,10.7,10.5c4.7,5.2,8.7,10.8,11.6,17.2C91.3,133.4,91.2,133.5,91.2,133.7z"/>
				<path class="st1" d="M91.6,134.4l-0.6-0.2c-0.8-0.3-1.3-0.9-1.6-1.5c-0.1-0.1-0.2-0.2-0.2-0.4c-2.7-3.7-5.5-7.7-8.6-11.5
					c-2.2-2.7-4.6-5.2-7-7.7l-1.2-1.2c-1-1-2-2-3-3c-1.4-1.3-2.8-2.7-4.1-4.2c-0.6-0.6-1.1-1.2-1.7-1.8c-0.5-0.5-1-1.1-1.6-1.6
					l-0.1-0.1c-0.2-0.2-0.8-0.7-0.3-1.4c0.2-0.3,0.4-0.3,0.6-0.4c0.4,0,0.6,0.2,0.8,0.3c0.1,0,0.1,0.1,0.1,0.1
					c1.9,1.1,3.5,2.6,5,4.1c0.4,0.4,0.8,0.8,1.2,1.2c1,0.9,1.9,1.9,2.9,2.8c2.6,2.5,5.3,5,7.8,7.8c5.1,5.6,8.9,11.3,11.7,17.3
					c0.1,0.2,0.1,0.4,0,0.5v0.1L91.6,134.4z M63.3,101.2c0.4,0.4,0.7,0.7,1.1,1.1c0.6,0.6,1.1,1.2,1.7,1.8c1.3,1.4,2.7,2.8,4.1,4.1
					c1,1,2,2,3,3l1.2,1.2c2.4,2.5,4.9,5,7.1,7.7c2.9,3.7,5.6,7.4,8.2,11c-2.6-5-6-9.9-10.4-14.7c-2.4-2.7-5.1-5.2-7.7-7.7
					c-1-0.9-2-1.9-2.9-2.8c-0.4-0.4-0.8-0.8-1.2-1.2C66.1,103.5,64.8,102.2,63.3,101.2z"/>
			</g>
		</g>
		<g>
			<g>
				<path class="st1" d="M112.1,85.6c-1.6,0.2-3.2,0.7-4.8,0c-0.1,0-0.2-0.1-0.3-0.1c-4.8-0.3-9.6-0.5-14.5-0.4
					c-2.3,0.1-4.6,0.2-7,0.4c-0.5,0-0.8-0.2-0.9-0.5c-0.1-0.5,0.4-0.6,0.7-0.6c4.4-1.5,8.9-2.1,13.5-1.8c2.8,0.2,5.7,0.2,8.4,1.3
					C108.8,84.5,110.5,84.8,112.1,85.6z"/>
				<path class="st1" d="M109.2,86.5c-0.7,0-1.4-0.1-2.1-0.4c0,0,0,0-0.1,0c-4.2-0.3-9.2-0.5-14.4-0.4c-2.2,0.1-4.5,0.2-6.9,0.4
					c-0.7,0-1.3-0.3-1.4-0.8c-0.1-0.3,0-0.5,0-0.7c0.2-0.4,0.6-0.5,0.9-0.6h0.1c4.5-1.5,9.1-2.1,13.7-1.8c0.5,0,1,0.1,1.4,0.1
					c2.4,0.1,4.8,0.3,7.1,1.2c0.6,0.3,1.3,0.5,2,0.7c1,0.3,2,0.6,3,1.1l1.4,0.7l-1.6,0.2c-0.3,0-0.6,0.1-0.9,0.1
					C110.6,86.4,109.9,86.5,109.2,86.5z M95.7,84.6c4,0,7.9,0.2,11.3,0.4c0.1,0,0.3,0,0.5,0.1c0.9,0.4,1.8,0.4,2.8,0.2
					c-0.4-0.1-0.8-0.2-1.2-0.4c-0.7-0.2-1.4-0.4-2.1-0.7c-2.2-0.9-4.5-1-6.8-1.1c-0.5,0-1-0.1-1.4-0.1c-4.5-0.3-8.9,0.2-13.3,1.7
					h-0.1c0,0-0.1,0-0.2,0.1c0.1,0.1,0.2,0.1,0.4,0.1c2.5-0.2,4.8-0.3,7-0.4C93.6,84.7,94.7,84.6,95.7,84.6z"/>
			</g>
		</g>
		<g>
			<g>
				<path class="st1" d="M76.2,48c-0.4,1-1,1.8-1.4,2.7c-1.8,3.8-4,7.4-5.7,11.3c-1.2,2.8-2.5,5.6-3.4,8.6c-0.2,0.6-0.5,0.8-1,1
					c-0.6,0.2-0.7-0.3-0.7-0.7c0.2-1.8,0.6-3.6,1.2-5.4c1.6-4.4,3.5-8.6,6-12.5C72.7,50.8,74.3,49.1,76.2,48z"/>
				<path class="st1" d="M64.5,72.1c-0.3,0-0.5-0.1-0.6-0.2c-0.3-0.2-0.4-0.6-0.3-1.1c0.2-2,0.6-3.8,1.3-5.5c2-5.3,3.8-9.2,6.1-12.6
					c1.5-2.3,3.2-4,5.1-5.1l1.2-0.7l-0.5,1.3c-0.2,0.6-0.5,1.1-0.8,1.6c-0.2,0.4-0.4,0.7-0.6,1.1c-0.8,1.8-1.7,3.5-2.6,5.2
					c-1,2-2.1,4-3,6.1l-0.3,0.7c-1.1,2.5-2.3,5.1-3,7.8c-0.2,0.7-0.6,1.1-1.3,1.3C64.7,72.1,64.6,72.1,64.5,72.1z M74.8,49.6
					c-1.1,0.9-2.1,2.1-3.1,3.6c-2.2,3.3-4,7.2-6,12.4c-0.6,1.6-1,3.3-1.2,5.3c0,0.1,0,0.2,0,0.2s0,0,0.1,0c0.4-0.1,0.5-0.3,0.6-0.6
					c0.8-2.7,1.9-5.4,3.1-7.9l0.3-0.7c0.9-2.1,2-4.2,3.1-6.2c0.9-1.7,1.8-3.4,2.6-5.1C74.5,50.2,74.6,49.9,74.8,49.6z"/>
			</g>
		</g>
		<g>
			<g>
				<path class="st1" d="M38.1,148.9c-0.3-1.2,0-2.5,0.2-3.6c0.5-3,1.1-6,1.9-8.9c1.5-5.8,3-11.5,5.2-17.1c0.6-1.6,1.5-3.1,2.2-4.7
					c0.2-0.4,0.4-0.6,0.8-0.5c0.4,0.2,0.4,0.5,0.2,0.9c-0.6,1.7-1.3,3.4-1.9,5.1c-1.4,3.8-2.6,7.6-3.6,11.5
					c-1.3,4.7-2.6,9.4-3.9,14.1c-0.3,1-0.5,2.1-0.8,3.1C38.3,148.9,38.2,148.9,38.1,148.9z"/>
				<path class="st1" d="M38.8,149.5l-1.1-0.2l-0.1-0.3c-0.3-1.1-0.1-2.2,0.1-3.2c0-0.2,0.1-0.4,0.1-0.7c0.4-2.8,1-5.7,1.9-8.9
					c1.5-5.7,3-11.6,5.3-17.1c0.4-1,0.9-2,1.4-2.9c0.3-0.6,0.6-1.2,0.9-1.9c0.4-1,1.1-0.9,1.4-0.7c0.3,0.1,0.9,0.5,0.5,1.6
					c-0.3,0.8-0.6,1.5-0.9,2.3c-0.4,0.9-0.7,1.9-1.1,2.8c-1.5,3.8-2.6,7.7-3.6,11.5c-0.8,3-1.6,5.9-2.5,8.9c-0.5,1.8-1,3.5-1.5,5.3
					c-0.2,0.7-0.4,1.4-0.6,2.1L38.8,149.5z M48.3,114.6c0,0-0.1,0-0.1,0.2c-0.3,0.6-0.6,1.3-0.9,1.9c-0.5,0.9-0.9,1.9-1.3,2.8
					c-2.2,5.5-3.7,11.4-5.2,17c-0.8,3.2-1.5,6.1-1.9,8.8c0,0.1,0,0.2-0.1,0.4c0.5-1.8,1-3.5,1.5-5.3c0.8-3,1.6-5.9,2.5-8.9
					c1-3.7,2.2-7.7,3.6-11.6c0.4-0.9,0.7-1.9,1.1-2.8c0.3-0.8,0.6-1.5,0.9-2.3C48.3,114.6,48.3,114.6,48.3,114.6L48.3,114.6z"/>
			</g>
		</g>
		<g>
			<g>
				<path class="st1" d="M9.3,118.2c1.3-1.4,2.6-2.8,4.3-3.9c5.5-3.6,11.2-6.8,17.5-8.9c1-0.3,1.9-0.6,3-0.6c0.4,0,0.7,0.1,0.7,0.6
					c0,0.4-0.1,0.6-0.6,0.7c-3.7,1.2-7.3,2.7-10.8,4.6c-4.4,2.4-8.9,4.7-13.1,7.4C10.1,118.2,9.8,118.6,9.3,118.2z"/>
				<path class="st1" d="M9.7,118.9c-0.2,0-0.5-0.1-0.7-0.3l-0.4-0.3l0.6-0.7c1.2-1.3,2.5-2.7,4.1-3.7c6.5-4.3,12.1-7.2,17.6-8.9H31
					c1-0.3,1.9-0.6,3-0.6c1,0,1.2,0.6,1.2,1c0.1,0.9-0.7,1.2-0.9,1.3c-4,1.3-7.5,2.8-10.7,4.5l-1.8,0.9c-3.8,2-7.7,4.1-11.3,6.4
					l-0.1,0.1C10.4,118.7,10.1,118.9,9.7,118.9z M33.9,105.3c-0.9,0-1.7,0.3-2.5,0.5h-0.1c-5.4,1.7-10.9,4.6-17.4,8.8
					c-1,0.7-1.9,1.4-2.7,2.3c3.4-2.1,6.9-4,10.3-5.8l1.8-0.9c3.2-1.7,6.7-3.2,10.8-4.6c0.2-0.1,0.2-0.1,0.2-0.1l0,0c0,0,0,0,0-0.1
					s-0.1-0.1-0.3-0.1C34,105.3,33.9,105.3,33.9,105.3z"/>
			</g>
		</g>
		<g>
			<g>
				<path class="st1" d="M48.8,36.7c0.4,1.3,0,2.2,0,3.2c-0.2,5.6,0.8,11.1,2.1,16.5c0,0.1,0.1,0.3,0.1,0.4c0,0.4,0.1,0.8-0.4,1
					c-0.5,0.1-0.8-0.1-1-0.5c-0.8-1.7-1.2-3.6-1.6-5.4c-0.7-3-0.7-6-0.6-9C47.4,40.8,47.9,38.8,48.8,36.7z"/>
				<path class="st1" d="M50.3,58.3c-0.4,0-0.9-0.2-1.2-0.9c-0.7-1.5-1.1-3.1-1.4-4.6l-0.2-0.9c-0.7-2.9-0.7-5.9-0.6-9.1
					c0.1-2.1,0.6-4.1,1.5-6.3l0.5-1.2l0.4,1.2c0.3,1,0.2,1.8,0.1,2.5c0,0.3-0.1,0.5-0.1,0.8c-0.2,5.7,0.9,11.3,2.1,16.4v0.1
					c0,0.1,0.1,0.2,0.1,0.4v0.1c0,0.3,0.1,1.1-0.8,1.3C50.6,58.3,50.4,58.3,50.3,58.3z M48.3,39.7c-0.3,1-0.4,2.1-0.4,3.1
					c-0.1,3.2-0.1,6.1,0.6,8.9l0.2,0.9c0.4,1.6,0.7,3,1.4,4.4c0.1,0.3,0.2,0.3,0.4,0.3c0.1,0,0-0.2,0-0.3v-0.2v-0.1
					c0-0.1,0-0.1-0.1-0.2C49.2,51.3,48.1,45.7,48.3,39.7C48.3,39.8,48.3,39.8,48.3,39.7z"/>
			</g>
		</g>
	</g>
</g>
<path class="st2" d="M511.6,50.5c-0.4-0.7,0-5.3,0.8-3.4c0.8,1.8,13.6,14.1,13.7,16.5c0.1,2.5,2.7,4.3,4.5,4.2
	c1.7-0.1,1.6-1.7,2.8-2.3c1.3-0.6,3.4,0.4,3.4,0.4l2.7,0.1l-3.1,1.4c0,0-1.7,1.7-2.4,2.5c-0.6,0.8,1,2.6,3.1,2.9s10.1,9.6,10.1,9.6
	s4.6,2.8,3.6,3s-7.1-0.7-9.1-1c-1.9-0.2-1.3-1.1-3-0.8c-1.7,0.3-1.6-1.3-2.9-1.1c-1.3,0.2-2.5-2.4-4.2-2.2c-1.7,0.1-1.2-1.8-3.3-2.8
	c-1.1-0.5-1.3-0.8-1.3-1c-0.9,0.9-5.2,5-6.5,5.8c-1.4,1-2.6,0.7-4.7,0.3c-2.1-0.3-0.6-3.6,0.3-4.8c1.1-1.5,9.2-4.4,7.9-4.4
	c-1.3,0.1-2-1.8-3.6-2.2c-1.7-0.4-2.3-1.9-3.1-2.8s-0.8-2-2.6-3.4c-1.8-1.4-0.8-3-1.9-3.9c-1.1-0.9-0.2-2.6-0.5-2.9s-0.2-3-0.7-3.6
	C511,54.2,512,51.3,511.6,50.5z"/>
<path class="st2" d="M581,34c-0.4-0.7,0-5.3,0.8-3.4c0.8,1.8,13.6,14.1,13.7,16.5c0.1,2.5,2.7,4.3,4.5,4.2c1.7-0.1,1.6-1.7,2.8-2.3
	c1.3-0.6,3.4,0.4,3.4,0.4l2.7,0.1l-3.1,1.4c0,0-1.7,1.7-2.4,2.5c-0.6,0.8,1,2.6,3.1,2.9s10.1,9.6,10.1,9.6s4.6,2.8,3.6,3
	s-7.1-0.7-9.1-1c-1.9-0.2-1.3-1.1-3-0.8c-1.7,0.3-1.6-1.3-2.9-1.1c-1.3,0.2-2.5-2.4-4.2-2.2c-1.7,0.1-1.2-1.8-3.3-2.8
	c-1.1-0.5-1.3-0.8-1.3-1c-0.9,0.9-5.2,5-6.5,5.8c-1.4,1-2.6,0.7-4.7,0.3c-2.1-0.3-0.6-3.6,0.3-4.8c1.1-1.5,9.2-4.4,7.9-4.4
	c-1.3,0.1-2-1.8-3.6-2.2c-1.7-0.4-2.3-1.9-3.1-2.8c-0.8-0.9-0.8-2-2.6-3.4s-0.8-3-1.9-3.9c-1.1-0.9-0.2-2.6-0.5-2.9
	c-0.3-0.3-0.2-3-0.7-3.6C580.4,37.7,581.4,34.8,581,34z"/>
<g>
	<path class="st3" d="M93.2,4.2c0-2,1.3-3.6,2.8-3.6c1.6,0,2.8,1.7,2.8,3.6c0,2-1.3,3.6-2.8,3.6C94.5,7.9,93.2,6.3,93.2,4.2z"/>
	<g>
		<rect x="94.4" y="6.9" class="st3" width="2.9" height="157.8"/>
		<g>
			
				<linearGradient id="SVGID_1_" gradientUnits="userSpaceOnUse" x1="-22.1842" y1="-597.8386" x2="-16.6902" y2="-597.8386" gradientTransform="matrix(0.5938 -2.390432e-02 -4.019665e-02 -0.9992 84.5863 -586.9524)">
				<stop  offset="0" style="stop-color:#C82226"/>
				<stop  offset="0.3108" style="stop-color:#CB2427"/>
				<stop  offset="0.5569" style="stop-color:#D52A29"/>
				<stop  offset="0.7805" style="stop-color:#E6352D"/>
				<stop  offset="0.7835" style="stop-color:#E6352D"/>
				<stop  offset="0.8611" style="stop-color:#E2322C"/>
				<stop  offset="0.9462" style="stop-color:#D42A29"/>
				<stop  offset="1" style="stop-color:#C82226"/>
			</linearGradient>
			<path class="st4" d="M98.7,10.3c0,0-0.5,0.4-1.6,0.3c-1.1,0-1.7-0.1-1.7-0.1s-0.1,0.2,0,0.7c0.4,0.2,1.4,0.3,1.8,0.3
				c0.5,0,1.1-0.1,1.3-0.3C98.6,10.7,98.7,10.3,98.7,10.3z"/>
			
				<linearGradient id="SVGID_00000088849745677307066100000007527245124172086194_" gradientUnits="userSpaceOnUse" x1="-52.682" y1="-645.7822" x2="-47.1887" y2="-645.7822" gradientTransform="matrix(0.5671 -2.281365e-02 -4.019665e-02 -0.9992 101.0447 -587.4672)">
				<stop  offset="0" style="stop-color:#C82226"/>
				<stop  offset="0.3108" style="stop-color:#CB2427"/>
				<stop  offset="0.5569" style="stop-color:#D52A29"/>
				<stop  offset="0.7805" style="stop-color:#E6352D"/>
				<stop  offset="0.7835" style="stop-color:#E6352D"/>
				<stop  offset="0.8611" style="stop-color:#E2322C"/>
				<stop  offset="0.9462" style="stop-color:#D42A29"/>
				<stop  offset="1" style="stop-color:#C82226"/>
			</linearGradient>
			<path style="fill:url(#SVGID_00000088849745677307066100000007527245124172086194_);" d="M100.1,58.4c0,0-0.1,0.3-1.1,0.2
				c-1,0-1.8-0.2-1.8-0.2s-0.1,0.3,0,0.9c0.4,0.2,1.4,0.2,1.8,0.2s1-0.1,1.3-0.3C100.1,59,100.1,58.4,100.1,58.4z"/>
			<g>
				
					<linearGradient id="SVGID_00000039101986700828129890000008827979594855349144_" gradientUnits="userSpaceOnUse" x1="542.2092" y1="-651.2168" x2="576.7817" y2="-651.2168" gradientTransform="matrix(0.9814 0.1922 0.1922 -0.9814 -263.9125 -703.1324)">
					<stop  offset="0" style="stop-color:#C82226"/>
					<stop  offset="0.1047" style="stop-color:#CB2427"/>
					<stop  offset="1" style="stop-color:#E5332B"/>
				</linearGradient>
				<path style="fill:url(#SVGID_00000039101986700828129890000008827979594855349144_);" d="M173.2,65.7L173.2,65.7
					c-0.4-8.4-0.8-16.6-1.4-24.9l0,0c-0.1-3.8-0.2-7.7,0-11.5c0.1-2.3,0.1-5.1,1.1-7.3c-1.7-1.4-3.4-2.8-5.6-2.9
					c-2-0.2-3.9,0.8-5.5,1.8c-4.5,3-9.4,1-13.4-1.8c-0.3-0.2-0.7-0.3-1.1-0.4c1.2,7.6,2.1,15.2,2.8,22.8c-0.1,0.8-0.2,1.6-0.3,2.3
					c0.4,6.3,1,12.8,0.5,19.2c-0.1,1.8,0.8,3.6,2.3,4.6c3.1,2,6-0.4,9-1.7C164.8,64.4,170.6,61.4,173.2,65.7L173.2,65.7L173.2,65.7z
					"/>
				<path class="st7" d="M157.3,58.3c0.6,1.8-1.4,2.6-2.7,2.9c-1.1,0.3-3.9,0.3-4.4,1.7c0-2.6-0.4-7.3,0.1-7.9
					C150.9,54.4,156.4,55.6,157.3,58.3z"/>
				<path class="st8" d="M152.5,11.7c-0.1-0.3-0.3-0.5-0.4-0.8c-0.1-0.2-0.2-0.3-0.3-0.5c-0.1-0.1-0.2-0.3-0.4-0.4
					c-0.3-0.3-0.7-0.6-1-0.8c-0.2-0.1-0.3-0.2-0.5-0.2c-0.5-0.2-1-0.4-1.5-0.5c-4-0.9-7.8,0.9-11.7,1c-0.5,0-0.9,0-1.3-0.1
					c-1.4-0.3-2.5-1.4-3.6-2.1c-1.3-1-2.7-1.7-4.3-2c-9.1-2.1-19.9-1.6-28,4.1c-0.1,0-0.1,0.1-0.2,0.1c-0.2,0.1-0.4,0.3-0.5,0.4
					c-0.1,0-0.1,0.1-0.1,0.1c-0.1,0.1-0.2,0.1-0.2,0.2c-0.2,0.2-0.4,0.3-0.4,0.3c0,0.1,0.1,0.2,0.1,0.3l0,0c0,0.1,0.1,0.2,0.1,0.3
					l0,0c0,0.1,0.1,0.2,0.1,0.3c0,0,0,0,0,0.1s0.1,0.2,0.1,0.4c0,0,0,0,0,0.1s0.1,0.3,0.1,0.4c0,0,0,0,0,0.1s0.1,0.3,0.1,0.4
					c0,0,0,0,0,0.1c0,0.2,0.1,0.3,0.1,0.5l0,0c0,0.2,0.1,0.3,0.1,0.5l0,0c0,0.2,0.1,0.3,0.1,0.5c0,0,0,0,0,0.1
					c0,0.2,0.1,0.4,0.1,0.5V15c0,0.2,0.1,0.4,0.1,0.5v0.1c0,0.2,0.1,0.4,0.1,0.6v0.1c0,0.2,0.1,0.4,0.1,0.6V17
					c0,0.2,0.1,0.4,0.1,0.6v0.1c0,0.2,0.1,0.4,0.1,0.6v0.1c0,0.2,0,0.4,0.1,0.6c0,0.1,0,0.1,0,0.2c0,0.2,0,0.4,0.1,0.6
					c0,0.1,0,0.1,0,0.2c0,0.2,0,0.4,0.1,0.6c0,0.1,0,0.1,0,0.2c0,0.2,0,0.4,0.1,0.6c0,0.1,0,0.2,0,0.2c0,0.2,0,0.4,0.1,0.6
					c0,0.1,0,0.2,0,0.3c0,0.2,0,0.4,0.1,0.6c0,0.1,0,0.2,0,0.3c0,0.2,0,0.4,0.1,0.6c0,0.1,0,0.2,0,0.3c0,0.2,0,0.4,0,0.6
					c0,0.1,0,0.2,0,0.4s0,0.4,0,0.5s0,0.2,0,0.4s0,0.4,0,0.5s0,0.2,0,0.3c0,0.2,0,0.4,0,0.6c0,0.1,0,0.2,0,0.3c0,0.2,0,0.4,0,0.6
					c0,0.1,0,0.2,0,0.3c0,0.2,0,0.4,0,0.6c0,0.1,0,0.2,0,0.3c0,0.2,0,0.4,0,0.6c0,0.1,0,0.2,0,0.4s0,0.4,0,0.6c0,0.1,0,0.3,0,0.4
					c0,0.2,0,0.3,0,0.5s0,0.3,0,0.5s0,0.3,0,0.5s0,0.3,0,0.5s0,0.3,0,0.5c0,0.1,0,0.3,0,0.4c0,0.2,0,0.4,0,0.6c0,0.1,0,0.2,0,0.4
					c0.3,7.7,0.8,16.3-1.3,23.8c11.3-5.6,25-5.3,36.2-0.1c6.2,2.8,11.4-2.2,17.4-2.9c1.4-0.1,3.5,0.4,3.9,1.9
					C155.9,42.8,154.5,27.3,152.5,11.7z"/>
				<g>
					<path class="st9" d="M136.5,13.2c1.5,4.9,3,9.6,4.5,14.4c4.8-1,9.3,1.1,13.6,1.7c-4.6,1.7-7.5,4.2-11.4,6.8
						c1.2,4.8,2,9.5,3.9,14.1c-4-2.9-7.5-5.7-10.7-9.5c-4.4,2.7-8.7,5.6-12.9,8.6c1.7-4.5,3.4-9.1,5.7-13.3
						c-4.5-2.6-8.1-6.2-12.1-9.4c5,0.5,10,0.9,15,1.4C133.5,22.9,135,17.9,136.5,13.2z"/>
				</g>
				<g>
					<g>
						<g>
							<g>
								<defs>
									<path id="SVGID_00000073708736404605061840000014122806545069321636_" d="M136.7,9.6c-3.5,0.1-5.7-3.6-9.1-4.3
										c-9.5-2-21.7-1.7-29.4,5.3c1.1,2.7,1.3,5.9,1.7,8.9c0.6,4.7,0.9,9.3,1.1,14.1c0.2,5,0.3,9.8,0.1,14.8
										c-0.1,3.7-0.3,7.6-1.3,11.2c11.3-5.6,25-5.3,36.2-0.1c6.2,2.8,11.4-2.2,17.4-2.9c1.4-0.1,3.5,0.4,3.9,1.9
										c-1.4-15.6-2.8-31.1-4.8-46.6C150,5.8,141.3,9.5,136.7,9.6z"/>
								</defs>
								<clipPath id="SVGID_00000016066375261547037320000013433139181057010347_">
									<use xlink:href="#SVGID_00000073708736404605061840000014122806545069321636_"  style="overflow:visible;"/>
								</clipPath>
							</g>
						</g>
					</g>
				</g>
			</g>
		</g>
	</g>
	<g>
		<rect x="61.6" y="81.1" class="st10" width="67.4" height="10.3"/>
		<rect x="72.1" y="81.1" class="st11" width="6.7" height="10.3"/>
		<rect x="91.3" y="81.1" class="st11" width="6.7" height="10.3"/>
		<rect x="110.4" y="81.1" class="st11" width="6.7" height="10.3"/>
		<rect x="61.6" y="80.7" class="st10" width="67.4" height="1.3"/>
	</g>
	<rect x="59.4" y="106.6" class="st3" width="72" height="53.6"/>
	<rect x="51.9" y="89.3" class="st12" width="87" height="10.3"/>
	<g>
		<rect x="129.8" y="107.9" class="st10" width="8.7" height="52.3"/>
		<rect x="129.8" y="129.6" class="st11" width="8.7" height="8.8"/>
		<rect x="129.8" y="125.1" class="st11" width="8.7" height="8.8"/>
		<rect x="129.8" y="144.1" class="st11" width="8.7" height="8.8"/>
	</g>
	<g>
		<rect x="73.5" y="107.9" class="st10" width="5.6" height="52.3"/>
		<rect x="73.5" y="129.6" class="st11" width="5.6" height="8.8"/>
		<rect x="73.5" y="125.1" class="st11" width="5.6" height="8.8"/>
		<rect x="73.5" y="144.1" class="st11" width="5.6" height="8.8"/>
	</g>
	<g>
		<rect x="92.6" y="107.9" class="st10" width="5.6" height="52.3"/>
		<rect x="92.6" y="129.6" class="st11" width="5.6" height="8.8"/>
		<rect x="92.6" y="125.1" class="st11" width="5.6" height="8.8"/>
		<rect x="92.6" y="144.1" class="st11" width="5.6" height="8.8"/>
	</g>
	<g>
		<rect x="111.9" y="107.9" class="st10" width="5.6" height="52.3"/>
		<rect x="111.9" y="129.6" class="st11" width="5.6" height="8.8"/>
		<rect x="111.9" y="125.1" class="st11" width="5.6" height="8.8"/>
		<rect x="111.9" y="144.1" class="st11" width="5.6" height="8.8"/>
	</g>
	<g>
		<rect x="52.3" y="107.9" class="st10" width="8.7" height="52.3"/>
		<rect x="52.3" y="129.6" class="st11" width="8.7" height="8.8"/>
		<rect x="52.3" y="125.1" class="st11" width="8.7" height="8.8"/>
		<rect x="52.3" y="144.1" class="st11" width="8.7" height="8.8"/>
	</g>
	<polygon class="st10" points="139.6,110.6 51.1,110.6 47.4,92.4 143.4,92.4 	"/>
	<rect x="39.1" y="160.2" class="st12" width="112.5" height="26.8"/>
	<rect x="32" y="175.2" class="st13" width="126.7" height="38.4"/>
	<rect x="50.8" y="108" class="st12" width="89.2" height="2.8"/>
</g>
<g>
	<path class="st14" d="M215.2,206.9c0,0.4,0.1,0.7,0.1,1.1v0.1c0.1,0.3,0,0.6,0.1,0.8c0,0.5,0.1,1,0.2,1.5c0,0.1,0,0.3,0.1,0.4
		c0.1,0.4,0.2,0.8,0.1,1.2c0.1,0.3,0.2,0.6,0.3,1H216l0,0l-0.4,0.1l0,0l0,0l-0.2,0.1l-0.2-0.6c-0.2,0-0.3-0.1-0.4-0.6
		c0-0.3-0.1-0.6-0.1-0.8c-0.2-0.3-0.5-1.2-0.3-1.4c-0.1-0.1-0.1-0.2-0.2-0.3c0.2,0,0.3-0.1,0.1-0.3h0.1c0-0.2-0.1-0.5-0.1-0.7h0.1
		v-0.3l0,0c0,0.1-0.1,0.2-0.1,0.2c-3.4-1.6-3.1-6.4-2.1-10c2-6.6,5-12.8,9-18.4c-11.8,7.5-24.4,16.2-28.3,29.6l0,0
		c-0.5-3.6-1-7.2-1.5-10.7c-3,2.8-5.1,6.5-6.1,10.5c-1.1-3.1-2.1-6.2-3.2-9.4c-2.3,2.3-3.9,5.1-4.8,8.2c0.2,0.7,0,1.4,0.1,2.1
		c0,0.3,0,0.5-0.2,0.7v0.1v0.2c0.1,0.3,0.1,0.6,0.2,0.8l0,0c0.1,0.1,0,0.3,0,0.5c0,0.3,0.1,0.6,0.1,0.9c0,0.1,0,0.2,0,0.2
		c0.1,0.2,0.1,0.5,0,0.7c0,0.2,0.1,0.4,0.1,0.6h-0.1l0,0l-0.4,0.1l0,0l0,0h-0.2v-0.4c-0.2,0-0.3-0.1-0.3-0.4c0-0.2,0-0.3,0-0.5
		c-0.2-0.2-0.4-0.7-0.1-0.8c-0.1,0-0.1-0.1-0.1-0.1c0.2,0,0.3-0.1,0.2-0.2h0.1c0-0.1,0-0.3-0.1-0.4h0.1v-0.2l0,0
		c-0.1-0.2-0.2-0.5-0.2-0.7c0,0,0-0.1,0-0.2c0-0.1,0-0.2,0-0.3v-0.1c-0.1-0.4-0.1-0.8-0.1-1.2v-0.1H176
		c-2.4-12.2-7.7-23.9-15.4-33.8c2.7,6,1.6,13.2-1.4,19.1c-1.7,3.1-3.8,5.9-6.3,8.5c-0.1,0.1-0.1,0.2-0.1,0.2
		c-0.1,0.3-0.2,0.6-0.3,0.9c-0.5,1.6-1.9,3-3,4.4c-0.5,0.6-0.8,0.8-1.4,1H148l-0.3,0.3c-0.4,0.5-0.9,0.9-1.4,1.3c0,0,0,0.1-0.1,0.1
		c-0.2,0.3-0.6,0.4-0.9,0.6c-0.6,0.3-1.1,0.7-1.7,1c-0.2,0.1-0.3,0.2-0.5,0.3c-0.5,0.3-1,0.5-1.5,0.6c-0.4,0.1-0.7,0.3-1.2,0.5v-0.1
		h-0.1l-0.1-0.4l0,0l0,0l-0.1-0.2l0.8-0.3c-0.1-0.2,0.2-0.3,0.7-0.5c0.3-0.1,0.6-0.2,0.9-0.3c0.3-0.3,1.2-0.9,1.5-0.9
		c0-0.1,0.2-0.2,0.2-0.3c0.1,0.2,0.2,0.2,0.4,0v0.1c0.3-0.1,0.5-0.4,0.7-0.5c0,0,0,0,0.1,0.1l0.4-0.2l0,0c0.3-0.4,0.7-0.7,1.1-1.1
		c0.1-0.1,0.1-0.2,0.2-0.3c0.1-0.1,0.3-0.2,0.5-0.4l0.2-0.2c0.6-0.6,1.2-1.3,1.7-2c0.1-0.1,0.2-0.3,0.3-0.4c0.1-0.3,0.3-0.5,0.7-0.7
		c0.1-0.1,0.1-0.1,0.2-0.2l0,0v-0.1c-1.4,1.4-2.8,2.7-4.3,4h-0.1c1-5.8,1.4-11.7,1.2-17.6c-6,3.8-9.8,10.6-10,17.6h-0.3
		c-1.8-7.7-2.8-15.5-3-23.4c-4.6,6.9-7.3,15.1-7.6,23.4H126c-1.7-4.1-3.5-8.2-5.2-12.3c-1.8,3.8-2.7,8.1-2.6,12.3h-1.4
		c-2.6-4.3-4.3-9.1-4.8-14.1c-1.2,4-1.9,8.1-1.9,12.3c0,0.3,0.1,0.6,0.2,0.9c0.2,0.5,0.2,0.7,0,1.1v0.1l0.1,0.3
		c0.2,0.4,0.3,0.8,0.5,1.2c0,0,0,0,0.1,0.1c0.1,0.2,0.1,0.5,0.2,0.7c0.1,0.4,0.3,0.8,0.5,1.2c0,0.1,0.1,0.2,0.1,0.3
		c0.2,0.3,0.3,0.6,0.3,1c0.1,0.3,0.3,0.5,0.4,0.8h-0.1l0,0l-0.4,0.2l0,0l0,0l-0.2,0.1l-0.2-0.5c-0.2,0.1-0.3-0.1-0.5-0.5
		c-0.1-0.2-0.1-0.4-0.2-0.7c-0.2-0.2-0.6-0.9-0.5-1.1c-0.1,0-0.1-0.2-0.2-0.2c0.2,0,0.2-0.2,0.1-0.3h0.1c0-0.2-0.1-0.4-0.2-0.5h0.1
		v-0.3l0,0c-0.2-0.3-0.3-0.6-0.4-1c0-0.1-0.1-0.1-0.1-0.2c0-0.1,0-0.3,0-0.4v-0.2c-0.2-0.6-0.4-1.1-0.5-1.7c0-0.1-0.1-0.2-0.1-0.3
		c-0.1-0.2-0.1-0.4,0-0.6c-3.4-3.5-3-8.6-3.5-13.3c-4,2-7.9,4-11.9,6c0-0.1,0.1-0.1,0.1-0.2c-0.2,0.3-0.4,0.5-0.7,0.8v0.1
		c-0.1,0.2-0.4,0.4-0.5,0.6c-0.3,0.3-0.7,0.7-1,1c-0.1,0.1-0.2,0.2-0.3,0.3c-0.3,0.3-0.5,0.6-0.9,0.7c-0.2,0.2-0.4,0.4-0.6,0.7
		l-0.1-0.1l0,0l-0.3-0.3l0,0l0,0l-0.2-0.2l0.4-0.4c-0.1-0.2,0-0.3,0.3-0.6c0.2-0.2,0.4-0.3,0.6-0.5c0.1-0.3,0.6-1,0.8-0.9
		c0-0.1,0.1-0.2,0.1-0.3c0.1,0.2,0.2,0.1,0.3-0.1c0,0,0,0.1,0.1,0.1c0.2-0.1,0.3-0.3,0.4-0.5c0,0,0,0,0.1,0.1l0.2-0.2l0,0
		c0.2-0.3,0.4-0.6,0.7-0.9c0-0.1,0.1-0.1,0.1-0.2c0.1-0.1,0.2-0.2,0.3-0.3l0.1-0.1c0.4-0.5,0.8-1,1.2-1.5l0.1-0.1
		c1.1-2.3,2.3-4.5,3.4-6.8c-4,1.7-8.1,3.3-12.1,5c2.8-2.1,4.7-5.3,5.2-8.7c-5.4,4.1-10.9,8.2-16.3,12.3c1.6-1.9,2.5-4.6,2.2-7.1
		c-3,2.4-5.9,4.9-8.9,7.3c0.6,0.7,0.6,1.6,0.9,2.4c0.1,0.4,0.2,0.5,0,0.9v0.1l0.1,0.2c0.1,0.3,0.3,0.6,0.4,0.9c0,0,0,0,0.1,0
		c0.1,0.1,0.1,0.4,0.2,0.5c0.1,0.3,0.2,0.6,0.3,1c0,0.1,0.1,0.2,0.1,0.3c0.1,0.3,0.2,0.5,0.1,0.8c0,0.2,0.2,0.4,0.2,0.6h-0.1l0,0
		l-0.4,0.1l0,0l0,0l-0.2,0.1l-0.1-0.4c-0.2,0-0.3-0.1-0.4-0.4c0-0.2-0.1-0.4-0.1-0.5c-0.2-0.2-0.5-0.7-0.3-0.8
		c-0.1,0-0.1-0.1-0.2-0.1c0.2,0,0.2-0.1,0.1-0.2h0.1c0-0.2-0.1-0.3-0.2-0.4h0.1v-0.2l0,0c-0.2-0.2-0.3-0.5-0.3-0.7
		c0,0-0.1-0.1-0.1-0.2c0-0.1,0-0.2,0-0.3v-0.1c-0.2-0.4-0.3-0.8-0.5-1.2c0-0.1-0.1-0.2-0.1-0.3c-0.1-0.1-0.2-0.3,0-0.5
		c0-0.1,0-0.1,0-0.2l0,0c-0.2,0-0.4-0.3-0.4-0.5c0,0,0,0-0.1,0c-1.5-2.3-2.9-4.7-4.4-7c-2.1,2.5-4.1,5-6.2,7.5
		c0.7-3.6,0.2-7.4-1.3-10.7c-2.1,2.7-3.8,5.7-4.9,8.9c0.2,1.1-0.1,2.3,0,3.4c0,0.5,0,0.8-0.2,1.2v0.1v0.3c0.1,0.4,0.1,0.9,0.1,1.3
		c0,0,0,0,0,0.1c0.1,0.2,0,0.5,0,0.8c0,0.5,0.1,0.9,0.1,1.4c0,0.1,0,0.3,0,0.4c0.1,0.4,0.1,0.7,0,1.1c0,0.3,0.1,0.6,0.2,0.9h-0.1
		l0,0h-0.4l0,0l0,0h-0.2l-0.1-0.6c-0.2,0-0.3-0.2-0.3-0.6c0-0.2,0-0.5,0-0.7c-0.2-0.3-0.4-1.1-0.2-1.2c-0.1-0.1-0.1-0.2-0.2-0.2
		c0.2,0,0.3-0.1,0.2-0.3H50c0-0.2,0-0.4-0.1-0.6H50v-0.3l0,0c-0.1-0.3-0.2-0.7-0.2-1.1c0-0.1,0-0.2,0-0.2c0-0.1,0-0.3,0.1-0.4v-0.2
		c0-0.2,0-0.4,0-0.6c-0.1,0.5-0.2,0.9-0.3,1.4c-0.7-4.9-1.4-9.8-2.2-14.7c-2.2,3.4-2.9,7.6-2.1,11.5c-2.9-7.7-5.7-15.3-8.6-23
		c-5.7,8.5-7.1,19.7-3.7,29.4c-0.5-0.7-1-1.5-1.5-2.2c0.1,0.3,0.2,0.6,0.4,0.8c0.4,0.7,0.5,1.1,0.6,1.8v0.1l0.2,0.4
		c0.4,0.6,0.7,1.2,1.1,1.9l0.1,0.1c0.2,0.3,0.4,0.7,0.6,1.1c0.4,0.6,0.7,1.3,1.1,1.9c0.1,0.2,0.2,0.3,0.3,0.5c0.3,0.5,0.7,1,0.8,1.5
		c0.2,0.4,0.5,0.7,0.8,1.2h-0.1v0.1l-0.3,0.2l0,0l0,0l-0.2,0.1l-0.5-0.8c-0.2,0.1-0.4-0.1-0.7-0.7c-0.2-0.3-0.4-0.7-0.5-1
		c-0.3-0.3-1.1-1.4-1.1-1.7c-0.1-0.1-0.2-0.2-0.3-0.3c0.2,0,0.2-0.2-0.1-0.5h0.1c-0.1-0.3-0.3-0.6-0.5-0.8c0,0,0.1,0,0.1-0.1
		l-0.2-0.4l0,0c-0.4-0.4-0.7-1-0.9-1.5c-0.1-0.1-0.1-0.2-0.2-0.3c-0.1-0.2-0.2-0.4-0.2-0.6l-0.1-0.2c-0.5-0.9-0.9-1.8-1.3-2.7
		c-0.1-0.2-0.2-0.4-0.2-0.5c-0.2-0.3-0.3-0.6-0.3-1.1c0-0.1-0.1-0.2-0.1-0.3l0,0c-0.3-0.1-0.7-0.9-0.7-1.3c0,0-0.1-0.1-0.1-0.2
		c0.1-0.2,0.1-0.4,0-0.7c-6.2-9.2-12.2-18.6-17.9-28c0,10.4,1.1,20.8,3.2,30.9c-4.3-5.7-8.5-11.4-12.8-17.1
		c0.4,10.5,2.7,21,6.9,30.7H9c0.8,0.9,2,1.5,3.3,1.5h210.8v-19.1C219.5,201.2,217.1,203.9,215.2,206.9z"/>
</g>
<g id="Layer_1_00000006709344716596674720000009342020812511110043_">
	<path class="st15" d="M357.9,129.5c-2.8-2.9-6.1-5.2-10-6.8s-8.2-2.5-12.7-2.5c-9.6,0-17.4,3.2-23.6,9.5
		c-6.1,6.3-9.2,14.4-9.2,24.1c0,8.9,3.2,16.4,9.5,22.5c6.4,6.1,14,9.2,22.8,9.2c6.2,0,11.7-1.4,16.6-4.3c4.9-2.9,8.7-6.8,11.3-11.8
		c2.7-5,4-10.6,4-16.7c0-4.6-0.8-8.9-2.3-12.9C362.8,135.8,360.6,132.4,357.9,129.5z"/>
	<path class="st15" d="M594.9,124.6c-4.9-2.9-10.3-4.4-16.2-4.4c-3.9,0-8,0.9-12.1,2.7s-7.6,4.2-10.5,7.3c-6,6.1-9.1,13.7-9.1,22.8
		c0,5.7,1.4,11.1,4.2,16.2c2.8,5.1,6.6,9,11.5,11.9c4.8,2.9,10.2,4.3,15.9,4.3c6.1,0,11.6-1.4,16.5-4.3c4.9-2.9,8.7-6.8,11.5-11.8
		s4.1-10.5,4.1-16.3s-1.4-11.3-4.2-16.4C603.7,131.5,599.8,127.5,594.9,124.6z"/>
	<path class="st15" d="M472.4,124.7c-4.8-3-10.2-4.5-16-4.5c-6,0-11.5,1.4-16.4,4.3c-4.9,2.9-8.7,6.9-11.5,11.9s-4.2,10.5-4.2,16.4
		c0,10.1,3.4,18.2,10.2,24.3c3,2.6,6.3,4.6,10,6.1s7.4,2.2,10.9,2.2c6,0,11.6-1.5,16.6-4.4s8.9-6.9,11.7-11.9
		c2.8-5,4.2-10.5,4.2-16.5c0-5.6-1.4-10.9-4.1-15.9C481,131.7,477.2,127.7,472.4,124.7z"/>
	<path class="st16" d="M276,148.3V90.5c0-15.7-12.7-28.4-28.4-28.4l-86.3,14.2c-15.7,0-28.4,12.7-28.4,28.4V191
		c0,15.7,12.7,28.4,28.4,28.4h86.3c15.7,0,28.4-12.7,28.4-28.4v-33.7c-0.1-1.5-0.1-2.9-0.1-4.4C275.9,151.3,276,149.8,276,148.3z"/>
	<path class="st2" d="M242.7,200.7c-10,6.9-22.1,10.3-36.2,10.3c-20.4,0-39.1-7.3-56.4-22l18.4-18.6c11.4,12.2,24.6,18.4,39.4,18.4
		c5.7,0,11-1.2,15.8-3.6c6.1-2.9,9.1-7,9.1-12.1c0-7.6-5.5-12.4-16.6-14.4l-15.3-2.9c-13.6-2.6-23.7-5.9-30.3-9.8
		c-9.8-6-14.7-14.7-14.7-25.9c0-12.8,5.2-22.9,15.5-30.5c9.1-6.9,20.3-10.3,33.6-10.3c16.9,0,33.4,5.8,49.7,17.3l-15.3,18.9
		c-11.1-9.3-22.3-14-33.7-14c-5.5,0-10.6,1.2-15.1,3.6c-5.4,2.9-8,7-8,12.2c0,6.7,5.5,11.1,16.6,13.2l27.1,5.2
		c22.1,4.1,33.1,15.3,33.1,33.4C259.5,182.4,253.9,193,242.7,200.7z"/>
	<path class="st17" d="M367.5,113.4c-4.3-6.2-9.6-10.9-16-14.1c-6.3-3.2-13.3-4.8-20.8-4.8c-8,0-15.5,1.5-22.2,4.6
		c-6.8,3.1-12.9,7.9-18.5,14.3c-3.5,4-6.2,8-8.3,12c-2,4-3.5,8.4-4.4,13c-0.6,3.2-1.1,6.5-1.3,9.8v8.9c0.8,13.7,5.3,25.5,13.6,35.4
		c5,5.9,10.9,10.4,17.8,13.6c6.9,3.2,14.4,4.8,22.6,4.8c6.9,0,13.9-1.7,20.8-5s12.4-7.8,16.4-13.4h0.4v14.9h24.2V98h-24.2
		L367.5,113.4L367.5,113.4z M362.6,169.4c-2.7,5-6.4,8.9-11.3,11.8c-4.9,2.9-10.4,4.3-16.6,4.3c-8.9,0-16.5-3.1-22.8-9.2
		c-6.4-6.1-9.5-13.6-9.5-22.5c0-9.7,3.1-17.7,9.2-24.1c6.1-6.3,14-9.5,23.6-9.5c4.6,0,8.8,0.8,12.7,2.5c3.9,1.6,7.3,3.9,10,6.8
		c2.8,2.9,4.9,6.3,6.5,10.3c1.5,4,2.3,8.3,2.3,12.9C366.6,158.8,365.3,164.4,362.6,169.4z"/>
	<path class="st17" d="M275.9,152.8c0,1.5,0.1,3,0.1,4.4v-8.9C276,149.8,275.9,151.3,275.9,152.8z"/>
	<path class="st17" d="M507.1,123.7c-2.4-4.5-5.1-8.3-8.2-11.4c-5.5-6.2-11.4-10.8-17.8-13.6s-13.7-4.2-22-4.2
		c-15.4,0-27.2,5.9-35.1,17.8h-0.5V98h-24v146.1h26.3v-48.4h0.4c8,10.3,19,15.4,33,15.4c7.7,0,15-1.5,21.8-4.6s12.7-7.4,17.7-12.9
		s8.8-11.8,11.5-18.8c2.6-7,4-14.3,4-22c0-5-0.6-10-1.7-15C511.3,132.9,509.5,128.2,507.1,123.7z M483.6,169.1
		c-2.8,5-6.7,9-11.7,11.9s-10.5,4.4-16.6,4.4c-3.5,0-7.2-0.7-10.9-2.2c-3.7-1.5-7.1-3.5-10-6.1c-6.8-6.1-10.2-14.2-10.2-24.3
		c0-5.9,1.4-11.4,4.2-16.4c2.8-5,6.6-9,11.5-11.9s10.4-4.3,16.4-4.3c5.9,0,11.2,1.5,16,4.5s8.6,7,11.3,12c2.7,5,4.1,10.3,4.1,15.9
		C487.8,158.6,486.4,164.1,483.6,169.1z"/>
	<path class="st17" d="M632.9,130.5c-2.9-7-6.9-13.3-12.2-18.7s-11.4-9.6-18.4-12.7c-7-3.1-14.5-4.6-22.5-4.6
		c-8.2,0-15.9,1.5-23.1,4.5c-7.1,3-13.4,7.1-18.8,12.4c-5.4,5.3-9.6,11.5-12.7,18.6c-3.1,7.1-4.6,14.8-4.6,22.9
		c0,10.4,2.6,20,7.9,29c5.2,8.9,12.3,16,21.2,21.3c8.9,5.2,18.6,7.9,28.9,7.9c7.9,0,15.3-1.5,22.5-4.4c7.1-2.9,13.4-7.1,18.9-12.6
		s9.7-11.7,12.7-18.7s4.4-14.5,4.4-22.4C637.2,145,635.8,137.5,632.9,130.5z M606.6,169.3c-2.8,5-6.6,9-11.5,11.8
		c-4.9,2.9-10.4,4.3-16.5,4.3c-5.8,0-11.1-1.4-15.9-4.3c-4.9-2.9-8.7-6.9-11.5-11.9c-2.8-5.1-4.2-10.4-4.2-16.2
		c0-9.1,3-16.7,9.1-22.8c2.8-3.1,6.3-5.5,10.5-7.3c4.1-1.8,8.2-2.7,12.1-2.7c5.8,0,11.2,1.5,16.2,4.4c4.9,2.9,8.8,6.9,11.7,12
		c2.8,5.1,4.2,10.6,4.2,16.4C610.8,158.9,609.4,164.3,606.6,169.3z"/>
</g>
<path class="st15" d="M222,189.9c-0.1,0.1-0.1,0.2-0.2,0.4c-0.2,0.2-0.3,0.6-0.5,0.8s-0.4,0.3-0.7,0.4l-0.1,0.1
	c0.1,0.2,0,0.4-0.2,0.5l0,0c-0.1,0.1-0.2,0.3-0.3,0.4c0,0,0,0-0.1,0c-0.1,0.2-0.3,0.3-0.4,0.4c-0.2,0.2-0.5,0.7-0.2,1
	c-0.2,0.1-0.4,0.1-0.6,0.2l-0.3,0.4c0,0.1,0,0.3,0,0.5c-0.3,0.2-0.6,1-0.8,1.4h0.1c-0.1,0.4-0.4,1.5-0.9,1.4c0,0.1-0.1,0.2-0.1,0.3
	c0,0-0.2,0.5-0.3,1c-0.1,0.2-0.2,0.5-0.2,0.7c-0.1,0.2-0.1,0.3-0.1,0.3c0,0.2,0,0.5,0,0.7c0,1.3-0.5,2.6-0.5,4
	c0,0.6-0.1,0.8-0.3,1.2l-0.1,0.1v0.3c0,0.1,0,0.3,0,0.4c1.8-3,4.3-5.7,7.2-7.8v-9.6C222.2,189.7,222,189.9,222,189.9z"/>
<g>
	<path class="st14" d="M69.5,204.9L69.5,204.9L69.5,204.9z"/>
</g>
<g>
	<polygon class="st14" points="91.3,200.9 91.5,200.6 91.2,200.9 	"/>
</g>
<g>
	<polygon class="st14" points="90.6,201.5 90.6,201.5 90.6,201.4 	"/>
</g>
<g>
	<path class="st14" d="M144.2,211.9l0.4-0.2L144.2,211.9z"/>
</g>
<g>
	<path class="st14" d="M110.5,212.7l-0.1-0.3L110.5,212.7z"/>
</g>
<g>
	<polygon class="st14" points="110.7,213.5 110.7,213.5 110.8,213.5 	"/>
</g>
<g>
	<polygon class="st14" points="143.1,212.5 143.2,212.4 143.2,212.4 	"/>
</g>
<g>
	<path class="st14" d="M69.4,204.3l-0.1-0.2L69.4,204.3z"/>
</g>
<g>
	<path class="st14" d="M33.9,211.8l-0.2-0.5L33.9,211.8z"/>
</g>
<g>
	<polygon class="st14" points="34.6,213 34.6,213 34.6,213.1 	"/>
</g>
<g>
	<path class="st14" d="M49.8,206.8L49.8,206.8L49.8,206.8z"/>
</g>
<g>
	<polygon class="st14" points="49.8,205.9 49.8,205.6 49.8,206 	"/>
</g>
<g>
	<path class="st14" d="M214.8,210.6L214.8,210.6L214.8,210.6z"/>
</g>
<g>
	<path class="st14" d="M214.7,209.6v-0.3V209.6z"/>
</g>
<g>
	<polygon class="st14" points="176.8,212.9 176.8,212.7 176.8,213 	"/>
</g>
<g>
	<path class="st14" d="M176.8,213.5L176.8,213.5L176.8,213.5z"/>
</g>
<path class="st14" d="M30.5,202.5c-0.4-0.9-0.7-1.8-1.2-2.6c-0.2-0.3-0.4-0.6-0.5-0.9c0,0-0.2-0.7-0.5-1.4c-0.1-0.4-0.2-0.7-0.3-1
	c-0.1-0.3-0.1-0.5-0.1-0.5c0-0.2,0-0.3-0.1-0.5c0.4-0.2-0.2-1.8-0.4-2.3h-0.1c-0.2-0.6-0.6-1.8-0.5-2.3c-0.1-0.2-0.2-0.4-0.4-0.6
	l-0.2-0.7c0.1-0.3,0.2-0.5,0.2-0.8c-0.4-0.1-0.5-0.9-0.6-1.3c0-0.2-0.1-0.5-0.1-0.8c0,0,0,0,0.1,0c0-0.3-0.1-0.5-0.1-0.7l0,0
	c0-0.4-0.1-0.6-0.3-0.7v-0.2c0-0.4,0.1-0.7,0.1-1.1c-0.1-0.5-0.3-0.9-0.3-1.4c-0.1-0.3-0.1-0.4-0.2-0.6c0,0-0.1-0.6-0.1-1.1
	c-0.1-0.6-0.1-1.1-0.1-1.1c0.1-0.8-0.1-1.5-0.1-2.4c0-0.4,0-1-0.2-1.4l0,0c0,0,0-0.4,0-1s0-1.4,0-2.2c0-1.6,0.1-3.3,0.1-3.3h-0.7
	v1.2c0,0.1-0.1,0.2-0.1,0.3c-0.2,0.5-0.1,1,0,1.6c0,0.2,0.1,0.5,0.1,0.7c0,0,0,1.1,0,2.1c0.1,1.1,0.1,2.1,0.1,2.1
	c-0.1,0.2-0.2,0.4-0.2,0.6c0,0.3,0.1,0.5,0.2,0.7c0.3,1.4-0.2,2.7,0.3,4.1c0.2,0.8,0.4,1.5,0.6,2.4c0.1,0.3,0.1,0.6,0.2,0.9
	c0,0,0.2,0.9,0.3,1.8c0.2,0.9,0.4,1.8,0.4,1.8c0,0.2,0,0.5,0.1,0.7c0.1,0.8,0.4,1.5,0.6,2.2l0.1,0.5c0,0.1,0,0.2,0,0.3
	c0,0.2,0,0.6,0.1,0.9c0.1,0.2,0.2,0.3,0.3,0.5c0,0.2,0.1,0.3,0.1,0.5c0,0.4,0,0.5,0.2,1c0.1,0,0.1,0,0.2,0.1v0.1c0,0.2,0,0.4,0,0.5
	c0.1,0.1,0.1,0.1,0.2,0.2c-0.1,0.4,0.1,1.1,0.4,1.4c0,0.1,0.1,0.2,0.1,0.4c0.1,0.3,0.3,0.6,0.5,0.8v0.1c0,0.1,0.1,0.3,0.1,0.4
	c0.9,1.4,1.9,2.8,2.8,4.2C31,203.8,30.8,203.1,30.5,202.5z"/>
<path class="st14" d="M28.4,200.9c0.1,0.1,0.1,0.1,0.1,0.2c0,0.4,0.4,1.2,0.7,1.3l0,0c0,0.1,0.1,0.2,0.1,0.3c0,0.4,0.1,0.8,0.3,1.1
	c0.1,0.2,0.1,0.4,0.2,0.5c0.4,0.9,0.9,1.8,1.3,2.7l0.1,0.2c0.1,0.2,0.1,0.4,0.2,0.6c0.1,0.1,0.1,0.2,0.2,0.3
	c0.3,0.6,0.6,1.1,0.9,1.5l0,0l0.2,0.4c0,0-0.1,0-0.1,0.1c0.2,0.3,0.4,0.5,0.5,0.8H33c0.2,0.2,0.3,0.4,0.1,0.5
	c0.1,0.1,0.2,0.2,0.3,0.3c-0.1,0.3,0.7,1.4,1.1,1.7c0.2,0.4,0.3,0.7,0.5,1c0.4,0.6,0.5,0.8,0.7,0.7l0.5,0.8l0.2-0.1l0,0l0,0l0.3-0.2
	v-0.1h0.1c-0.3-0.5-0.6-0.8-0.8-1.2c-0.2-0.5-0.5-1-0.8-1.5c-0.1-0.2-0.2-0.3-0.3-0.5c-0.4-0.6-0.8-1.3-1.1-1.9
	c-0.2-0.3-0.3-0.8-0.6-1.1l-0.1-0.1c-0.3-0.6-0.7-1.2-1.1-1.9l-0.2-0.4v-0.1c0-0.7-0.2-1-0.6-1.8c-0.1-0.3-0.3-0.6-0.4-0.8
	c-0.9-1.4-1.9-2.8-2.8-4.2C28.5,200.4,28.5,200.7,28.4,200.9z M34.6,213L34.6,213L34.6,213L34.6,213z M33.9,211.8L33.9,211.8
	l-0.3-0.5L33.9,211.8z"/>
<path class="st14" d="M68.4,198.5c-0.1-0.1-0.2-0.3-0.3-0.4l-0.5-1.3c0-0.1,0-0.2-0.1-0.2c0.4-0.2,0.1-0.9-0.1-1.1h-0.1
	c-0.1-0.3-0.4-0.8-0.3-1c-0.1-0.1-0.2-0.1-0.3-0.2l-0.1-0.3c0.1-0.2,0.2-0.3,0.3-0.5c-0.4,0-0.5-0.3-0.5-0.5c0-0.1,0-0.2-0.1-0.4
	c0,0,0,0,0.1,0c0-0.1-0.1-0.2-0.1-0.3l0,0c0-0.2-0.1-0.3-0.3-0.2V192c0-0.2,0.1-0.4,0-0.6c-0.1-0.2-0.3-0.4-0.4-0.5
	s-0.1-0.2-0.2-0.2l-0.4-0.9c0-0.4-0.2-0.7-0.4-1c-0.1-0.2-0.1-0.5-0.3-0.6l0,0l-1.2-2.7l-0.6,0.3l0.2,0.5c0,0.1,0,0.1,0,0.2
	c-0.1,0.3,0.2,0.4,0.3,0.6l0.2,0.3l0.8,1.7c0,0.1-0.1,0.2-0.1,0.3s0.2,0.2,0.3,0.3c0.4,0.5,0.1,1.3,0.5,1.7c0.3,0.3,0.5,0.6,0.6,0.9
	c0.1,0.1,0.1,0.2,0.2,0.4l0.6,1.5c0,0.1,0,0.2,0,0.3c0,0.4,0.3,0.6,0.4,0.9l0.1,0.2c0,0,0,0.1,0,0.2c0,0.1,0,0.3,0,0.4
	c0,0.1,0.1,0.1,0.2,0.2c0,0.1,0,0.1,0,0.2c0,0.2-0.1,0.3,0.1,0.5c0.1,0,0.1,0,0.2,0l0,0c0,0.1,0,0.2-0.1,0.3c0,0,0.1,0,0.1,0.1
	c-0.1,0.2-0.1,0.5,0.2,0.6c0,0.1,0,0.1,0,0.2c0.1,0.1,0.2,0.2,0.3,0.3v0.1c0,0.2,0,0.3-0.1,0.5c0,0,0.1,0,0.1,0.1v0.1
	C67.8,199.1,68.1,198.8,68.4,198.5C68.4,198.6,68.4,198.5,68.4,198.5z"/>
<path class="st14" d="M67.9,199.8L67.9,199.8c0,0.1,0,0.1,0,0.2c-0.1,0.2-0.1,0.4,0,0.5c0,0.1,0,0.2,0.1,0.3
	c0.2,0.4,0.3,0.8,0.5,1.2v0.1c0,0.1,0,0.2,0,0.3s0.1,0.1,0.1,0.2c0.1,0.3,0.2,0.5,0.3,0.7l0,0v0.2h-0.1c0.1,0.1,0.2,0.2,0.2,0.4
	h-0.1c0.1,0.1,0.1,0.2-0.1,0.2c0.1,0,0.1,0.1,0.2,0.1c-0.2,0.2,0.1,0.7,0.3,0.8c0,0.2,0,0.4,0.1,0.5c0.1,0.3,0.1,0.4,0.4,0.4
	l0.1,0.4l0.2-0.1l0,0l0,0l0.4-0.1l0,0h0.1c-0.1-0.2-0.2-0.4-0.2-0.6c0.1-0.3,0-0.5-0.1-0.8c0-0.1-0.1-0.2-0.1-0.3
	c-0.1-0.3-0.2-0.6-0.3-1c0-0.2,0-0.4-0.2-0.5c0,0,0,0-0.1,0c-0.1-0.3-0.2-0.6-0.4-0.9l-0.1-0.2v-0.1c0.2-0.3,0.1-0.5,0-0.9
	c-0.3-0.8-0.4-1.7-0.9-2.4c-0.3,0.3-0.6,0.5-0.9,0.8C67.5,199.5,67.7,199.8,67.9,199.8z M69.5,204.9L69.5,204.9L69.5,204.9
	L69.5,204.9z M69.4,204.3L69.4,204.3l-0.1-0.2L69.4,204.3z"/>
<path class="st14" d="M50.6,197.9c-0.1-0.2-0.1-0.4-0.2-0.7c0,0,0-0.5,0.1-1c0-0.5,0.1-1,0.1-1c0.1-0.1,0.1-0.2,0.1-0.3
	c0.5,0,0.5-1.1,0.4-1.4H51c0-0.4,0-1.2,0.2-1.4c-0.1-0.1-0.1-0.3-0.2-0.4l0.1-0.5c0.2-0.1,0.4-0.2,0.5-0.4c-0.3-0.2-0.3-0.6-0.2-0.9
	c0-0.1,0.1-0.3,0.1-0.5c0,0,0,0,0.1,0c0.1-0.1,0.1-0.3,0.1-0.5l0,0c0.1-0.2,0.1-0.4-0.1-0.5v-0.1c0.1-0.2,0.3-0.4,0.4-0.6
	c0.1-0.3,0-0.6,0-0.9c0-0.2,0-0.3,0-0.4c0,0,0.1-0.3,0.2-0.7c0.1-0.3,0.2-0.7,0.2-0.7c0.3-0.5,0.3-0.9,0.5-1.4
	c0.1-0.3,0.2-0.6,0.2-0.9l0,0c0,0,0.3-1,0.6-1.9c0.3-1,0.6-1.9,0.6-1.9l-0.6-0.2l-0.2,0.7c-0.1,0-0.1,0.1-0.2,0.1
	c-0.3,0.3-0.2,0.6-0.3,1l-0.1,0.5c0,0-0.2,0.6-0.4,1.3c-0.2,0.6-0.4,1.3-0.4,1.3c-0.1,0.1-0.2,0.2-0.3,0.3c-0.1,0.2,0,0.3,0,0.5
	c-0.1,0.9-0.8,1.5-0.8,2.4c0,0.5,0,1-0.1,1.5c0,0.2-0.1,0.4-0.1,0.6c0,0-0.1,0.6-0.2,1.1c-0.1,0.6-0.2,1.1-0.2,1.1
	c-0.1,0.1-0.1,0.3-0.1,0.4c-0.2,0.5-0.1,1-0.1,1.4v0.3c0,0.1,0,0.1-0.1,0.2c-0.1,0.1-0.2,0.4-0.2,0.5s0,0.2,0.1,0.4
	c0,0.1,0,0.2-0.1,0.3c-0.1,0.2-0.2,0.3-0.2,0.6c0.1,0,0.1,0.1,0.1,0.1v0.1c-0.1,0.1-0.1,0.2-0.2,0.3c0,0.1,0.1,0.1,0.1,0.2
	c-0.2,0.2-0.3,0.6-0.1,0.9c0,0.1,0,0.2,0,0.2c0,0.2,0.1,0.4,0.1,0.6v0.1c-0.1,0.2-0.1,0.4-0.3,0.6l0.1,0.1c-0.1,0.2-0.1,0.8,0.2,0.9
	l0,0c0,0.1,0,0.1,0,0.2c-0.2,0.2-0.2,0.5-0.1,0.7c0,0.1,0,0.2,0,0.4c0,0.4,0,0.9,0.1,1.3c0.3-1.3,0.6-2.5,1.1-3.8
	C50.6,198.1,50.6,198,50.6,197.9z"/>
<path class="st14" d="M49.6,202.7c0,0.1-0.1,0.3-0.1,0.4c0,0.1,0,0.2,0,0.2c0,0.4,0,0.8,0.2,1.1l0,0v0.3h-0.1c0,0.2,0.1,0.4,0.1,0.6
	h-0.1c0.1,0.2,0.1,0.3-0.2,0.3c0.1,0.1,0.1,0.2,0.2,0.2c-0.2,0.2,0,1,0.2,1.2c0,0.2,0,0.5,0,0.7c0,0.4,0.1,0.6,0.3,0.6l0.1,0.6h0.2
	l0,0l0,0h0.4l0,0h0.1c-0.1-0.3-0.1-0.6-0.2-0.9c0.1-0.4,0.1-0.7,0-1.1c0-0.1,0-0.2,0-0.4c0-0.5-0.1-0.9-0.1-1.4c0-0.2,0.1-0.5,0-0.8
	v-0.1c0-0.4-0.1-0.9-0.1-1.3v-0.3v-0.1c0.2-0.4,0.3-0.6,0.2-1.2c-0.1-1.1,0.2-2.3,0-3.4c-0.4,1.2-0.8,2.5-1.1,3.8c0,0.2,0,0.4,0,0.6
	L49.6,202.7z M49.8,206.8L49.8,206.8L49.8,206.8L49.8,206.8z M49.8,205.9L49.8,205.9v-0.3V205.9z"/>
<path class="st14" d="M93.7,199.2l0.2-0.2H94c0.5-0.1,0.7-0.3,1-0.7c0.8-1,1.9-1.8,2.4-3c0.1-0.2,0.2-0.4,0.3-0.7l1.2-1.5
	c0.1-0.1,0.2-0.1,0.2-0.2c0.4,0.2,1-0.7,1.1-1.1c0,0,0,0-0.1-0.1c0.2-0.3,0.7-1.1,0.9-1.2c0-0.2,0.1-0.3,0.1-0.5l0.3-0.4
	c0.2-0.1,0.4,0,0.6-0.1c-0.2-0.3,0.1-0.7,0.3-0.9c0.1-0.1,0.2-0.2,0.3-0.4c0,0,0,0,0.1,0c0.1-0.1,0.2-0.3,0.3-0.4l0,0
	c0.2-0.2,0.2-0.4,0.1-0.5l0.1-0.1c0.2-0.2,0.4-0.2,0.6-0.5c0.2-0.2,0.2-0.6,0.4-0.8c0.1-0.2,0.1-0.3,0.2-0.4l0.8-1.2
	c0.4-0.4,0.6-0.8,0.9-1.3c0.2-0.2,0.4-0.5,0.4-0.8l0,0c0,0,0.5-0.9,1.1-1.8c0.5-0.9,1.1-1.8,1.1-1.8l-0.6-0.3l-0.4,0.7
	c-0.1,0-0.1,0.1-0.2,0.1c-0.3,0.2-0.4,0.5-0.5,0.9l-0.2,0.4c0,0-0.4,0.6-0.7,1.2c-0.4,0.6-0.7,1.2-0.7,1.2c-0.1,0.1-0.3,0.1-0.3,0.2
	c-0.1,0.1-0.1,0.3-0.1,0.5c-0.4,0.9-1.2,1.2-1.6,2.1c-0.2,0.5-0.4,0.9-0.7,1.4c-0.1,0.2-0.2,0.3-0.3,0.5c0,0-0.3,0.5-0.7,1
	c-0.3,0.5-0.7,0.9-0.7,0.9c-0.1,0.1-0.2,0.2-0.3,0.3c-0.4,0.4-0.6,0.8-0.8,1.2l-0.2,0.3c0,0.1-0.1,0.1-0.2,0.1
	c-0.1,0.1-0.4,0.2-0.5,0.4c-0.1,0.1-0.1,0.2-0.1,0.3c-0.1,0.1-0.1,0.1-0.2,0.2c-0.2,0.1-0.3,0.2-0.5,0.5c0,0,0.1,0.1,0.1,0.2v0.1
	c-0.1,0-0.2,0.1-0.3,0.1c0,0.1,0,0.1,0,0.2c-0.3,0.1-0.6,0.4-0.6,0.7c-0.1,0.1-0.1,0.1-0.2,0.2c-0.1,0.2-0.2,0.4-0.2,0.6l-0.1,0.1
	c-0.2,0.2-0.4,0.3-0.6,0.3c0,0.1,0,0.1,0,0.1c-0.2,0.1-0.5,0.6-0.5,0.9l0,0c-0.1,0-0.1,0.1-0.2,0.1c-0.3,0.1-0.5,0.2-0.6,0.5
	l-0.1,0.1c-0.5,0.9-0.9,1.9-1.4,2.8C93.5,199.4,93.6,199.3,93.7,199.2z"/>
<path class="st14" d="M93.6,198.3l-0.1,0.1c-0.1,0.1-0.2,0.2-0.3,0.3c-0.1,0.1-0.1,0.1-0.1,0.2c-0.3,0.3-0.5,0.6-0.7,0.9l0,0
	l-0.2,0.2c0,0,0,0-0.1-0.1c-0.1,0.2-0.2,0.4-0.4,0.5c0,0,0,0-0.1-0.1c-0.1,0.2-0.2,0.2-0.3,0.1c0,0.1-0.1,0.2-0.1,0.3
	c-0.3,0-0.7,0.6-0.8,0.9c-0.2,0.1-0.4,0.3-0.6,0.5c-0.3,0.3-0.4,0.4-0.3,0.6l-0.4,0.4l0.2,0.2l0,0l0,0l0.3,0.3l0,0l0.1,0.1
	c0.2-0.3,0.4-0.5,0.6-0.7c0.3-0.1,0.6-0.4,0.9-0.7c0.1-0.1,0.2-0.2,0.3-0.3c0.3-0.3,0.6-0.7,1-1c0.2-0.2,0.4-0.3,0.5-0.6v-0.1
	c0.2-0.3,0.4-0.5,0.7-0.8c0.5-0.9,0.9-1.9,1.4-2.8l-0.1,0.1C94.4,197.3,94,197.8,93.6,198.3z M90.6,201.5L90.6,201.5L90.6,201.5
	L90.6,201.5z M91.3,200.9L91.3,200.9l0.2-0.2L91.3,200.9z"/>
<path class="st14" d="M110.1,208.1c0-0.1,0-0.3,0-0.4c-0.1-0.8-0.2-1.7-0.6-2.5c-0.1-0.2-0.2-0.4-0.3-0.6c0,0-0.1-0.4-0.1-0.9
	c-0.1-0.4-0.1-0.9-0.1-0.9c0-0.1,0.1-0.2,0-0.3c0.5-0.1,0.3-1.1,0.2-1.4h-0.1c0-0.4-0.1-1.1,0-1.4c-0.1-0.1-0.1-0.3-0.2-0.4v-0.5
	c0.1-0.1,0.3-0.2,0.4-0.4c-0.3-0.1-0.3-0.6-0.3-0.8c0-0.1,0.1-0.3,0.1-0.5c0,0,0,0,0.1,0c0-0.1,0-0.3,0-0.4l0,0
	c0.1-0.2,0-0.4-0.2-0.5v-0.1c0.1-0.2,0.3-0.4,0.3-0.6c0-0.3-0.1-0.6-0.1-0.8s0-0.3,0-0.4c0,0,0-0.3,0.1-0.7c0.1-0.3,0.1-0.6,0.1-0.6
	c0.2-0.5,0.2-0.9,0.4-1.4c0.1-0.3,0.2-0.6,0.1-0.8l0,0c0,0,0-0.2,0.1-0.6c0.1-0.3,0.2-0.8,0.3-1.3c0.3-0.9,0.6-1.8,0.6-1.8l-0.6-0.2
	l-0.2,0.7c-0.1,0-0.1,0.1-0.2,0.1c-0.3,0.2-0.2,0.6-0.3,0.9v0.4c0,0-0.2,0.6-0.3,1.2c-0.1,0.6-0.3,1.2-0.3,1.2
	c-0.1,0.1-0.2,0.2-0.3,0.3c-0.1,0.2,0,0.3,0,0.5c0,0.9-0.7,1.5-0.5,2.4c0.1,0.5,0.1,0.9,0.1,1.5c0,0.2,0,0.4,0,0.5
	c0,0,0,0.5-0.1,1.1c0,0.5,0,1.1,0,1.1c0,0.1-0.1,0.3-0.1,0.4c-0.1,0.5,0.1,0.9,0.1,1.3v0.3c0,0.1,0,0.1,0,0.2c0,0.1-0.1,0.4-0.1,0.5
	s0.1,0.2,0.1,0.3s0,0.2,0,0.3c0,0.2-0.1,0.3,0,0.6c0.1,0,0.1,0,0.2,0.1v0.1c0,0.1-0.1,0.2-0.1,0.3l0.1,0.1c-0.2,0.2-0.2,0.6,0.1,0.9
	c0,0.1,0,0.2,0,0.2c0,0.2,0.2,0.4,0.2,0.5v0.1c0,0.2,0,0.4-0.2,0.6l0.1,0.1c-0.1,0.2,0.1,0.8,0.4,0.8l0,0c0,0.1,0,0.1,0,0.2
	c0,0,0,0,0,0.1C109.2,207.4,109.6,207.7,110.1,208.1z"/>
<path class="st14" d="M108.9,207.6c0,0.1,0,0.2,0.1,0.3c0.1,0.6,0.3,1.1,0.5,1.7v0.2c0,0.1,0,0.3,0,0.4c0,0.1,0.1,0.2,0.1,0.2
	c0.1,0.4,0.2,0.7,0.4,1l0,0v0.3h-0.1c0.1,0.2,0.2,0.3,0.2,0.5H110c0.2,0.1,0.1,0.3-0.1,0.3c0.1,0,0.1,0.1,0.2,0.2
	c-0.2,0.2,0.3,0.9,0.5,1.1c0.1,0.2,0.1,0.5,0.2,0.7c0.1,0.4,0.2,0.5,0.5,0.5l0.2,0.5l0.2-0.1l0,0l0,0l0.4-0.2l0,0h0.1
	c-0.1-0.3-0.3-0.5-0.4-0.8c0-0.4-0.1-0.7-0.3-1c0-0.1-0.1-0.2-0.1-0.3c-0.1-0.4-0.3-0.8-0.5-1.2c-0.1-0.2-0.1-0.5-0.2-0.7
	c0,0,0,0-0.1-0.1c-0.1-0.4-0.3-0.8-0.5-1.2l-0.1-0.3v-0.1c0.2-0.4,0.1-0.6,0-1.1c-0.1-0.3-0.1-0.6-0.2-0.9c0,0.1,0,0.3,0,0.4
	c-0.5-0.3-0.9-0.7-1.2-1.1C108.8,207.2,108.8,207.4,108.9,207.6z M110.7,213.5L110.7,213.5L110.7,213.5L110.7,213.5z M110.5,212.7
	L110.5,212.7l-0.1-0.3L110.5,212.7z"/>
</svg>
